<?xml version="1.0" encoding="UTF-8"?><svg id="Layer_1" xmlns="http://www.w3.org/2000/svg" viewBox="0 0 474.55 92.24"><path d="M1.33,46.23C1.33,15.5,12.71,2.79,28.19,2.79c12.22,0,21.3,8.11,24.32,27.23,.12,.6-.24,1.21-.97,1.21h-15.73c-.24,0-.6-.36-.73-.6-1.09-6.17-3.15-11.01-7.02-11.01-5.2,0-8.95,6.53-8.95,26.62s3.87,26.62,9.2,26.62c4.36,0,7.14-4.84,7.87-18.76,.24-1.09-.36-1.82-1.45-1.82h-9.32c-.6,0-1.09-.36-1.09-1.09v-12.95c0-.6,.36-1.09,1.09-1.09h26.38c1.33,0,1.81,.36,1.81,1.69,.12,39.2-9.92,50.82-25.53,50.82S1.33,76.72,1.33,46.23Z"/><path d="M69.7,87.61l.6-55.18-.12-10.77c0-1.33-.48-1.69-1.82-1.69h-9.32c-.73,0-1.09-.48-1.09-1.09V4.85c0-.6,.36-1.09,1.09-1.09l19.36,.24,19.24-.12c.6,0,1.21,.36,1.21,1.09v13.92c0,.73-.6,1.09-1.21,1.09h-8.71c-1.33,0-1.81,.48-1.81,1.69v20.09l.24,45.86c0,.73-.48,1.09-1.09,1.09h-15.49c-.73,0-1.09-.48-1.09-1.09Z"/><path d="M123.17,87.37l4.36-19.36,9.92-48.52,3.03-14.4c.12-.73,.48-1.09,1.09-1.09h22.26c.6,0,.85,.36,1.09,1.09l2.66,13.07,9.68,49.01,4.48,20.21c.12,.6-.12,1.33-.85,1.33h-15.97c-.6,0-.97-.36-1.09-1.09l-1.33-8.47c-.12-1.21-.73-1.69-1.94-1.69l-8.47-.12-7.5,.12c-1.21,.12-1.81,.6-1.94,1.82l-1.57,8.59c-.12,.6-.48,.85-1.21,.85h-15.85c-.6,0-.97-.6-.85-1.33Zm24.44-25.89l4.6,.12,5.2-.12c1.33,0,1.82-.48,1.57-1.69l-5.2-28.8c-.36-2.3-1.94-2.42-2.3,.12l-5.32,28.56c-.24,1.33,.12,1.81,1.45,1.81Z"/><path d="M238.61,87.61l.36-19.97v-20.21c0-3.27-.97-5.81-4.11-5.81-2.9,0-4.72,1.94-4.72,6.41v39.57c0,.6-.36,1.09-1.09,1.09h-15.25c-.6,0-1.09-.36-1.09-1.09l.36-19.97v-20.09c0-3.39-.97-5.93-4.11-5.93-2.9,0-4.72,1.94-4.72,6.05v20.21l.12,19.72c0,.6-.36,1.09-1.09,1.09h-15c-.6,0-1.09-.36-1.09-1.09l.48-17.18v-25.17l-.48-16.94c0-.61,.36-1.21,1.09-1.21h14.64c.6,0,1.09,.36,1.09,1.09v.97c0,.97,.73,1.33,1.81,.36,1.94-1.82,4.6-3.75,9.56-3.75s8.71,1.57,11.25,4.84h.48c3.51-3.02,7.62-4.84,13.43-4.84,10.65,0,15.49,6.29,15.49,18.88l.12,42.96c0,.6-.36,1.09-1.09,1.09h-15.25c-.6,0-1.21-.36-1.21-1.09Z"/><path d="M262.81,57.12c0-20.45,7.99-31.58,22.75-31.58,15.73,0,21.78,10.65,21.78,38.6,0,.36-.48,.97-.85,.97h-23.96c-1.33,0-1.69,.24-1.69,1.81,0,4.6,2.54,7.14,5.45,7.14,2.66,0,4.23-1.45,4.84-4.72,.12-.24,.73-.73,1.09-.73h14.04c.24,0,.97,.6,.85,.85-1.81,11.98-8.59,20.21-20.93,20.21-14.64,0-23.35-10.77-23.35-32.55Zm19.36-5.2h6.66c1.33,0,1.69-.36,1.69-1.81-.12-6.53-1.94-9.2-4.84-9.2s-4.84,2.78-4.84,9.32c0,1.09,.36,1.69,1.33,1.69Z"/><path d="M313.99,87.61l.12-16.7v-25.05l-.36-17.67c0-.6,.24-1.09,.6-1.09h15.13c.6,0,1.09,.48,1.09,1.09v3.87c0,1.09,.73,1.33,1.33,.12,1.94-3.87,4.24-6.05,10.41-6.29,.6,0,1.09,.36,1.09,1.09v16.46c0,.73-.48,1.09-1.09,1.09-7.14,.24-11.5,2.9-11.5,13.07l.24,30.01c0,.6-.48,1.09-1.21,1.09h-14.76c-.6,0-1.09-.36-1.09-1.09Z"/><path d="M357.55,2.43c6.78,0,9.92,4.11,9.92,10.04s-3.15,10.41-9.92,10.41-10.04-4.36-10.04-10.41,3.03-10.04,10.04-10.04Zm-8.59,85.19l.36-16.7v-26.14l-.48-16.58c0-.73,.48-1.09,1.09-1.09h15.12c.61,0,1.21,.36,1.21,1.09l-.24,15.97v20.33l.12,23.11c0,.73-.6,1.09-1.21,1.09h-14.88c-.73,0-1.09-.48-1.09-1.09Z"/><path d="M372.67,57.24c0-19.97,8.83-31.7,23.11-31.7,12.46,0,20.33,7.02,21.78,27.71,0,.6-.36,1.21-1.21,1.21h-14.4c-.24,0-.73-.36-.73-.6-.36-11.01-2.42-12.58-5.45-12.58-3.63,0-5.81,4.6-5.81,15.97s2.06,16.82,6.05,16.82c3.03,0,4.84-3.63,5.2-12.1,0-.24,.36-.73,.73-.73h14.4c.61,0,1.21,.48,1.09,1.21-1.33,19.36-8.71,27.23-21.42,27.23-14.76,0-23.35-11.74-23.35-32.43Z"/><path d="M423.13,57.36c0-24.81,7.62-31.7,18.03-31.7,4.84,0,7.87,2.06,9.92,5.08,.61,.85,1.45,.6,1.45-.36v-2.06c0-.73,.48-1.21,1.09-1.21h14.76c.6,0,1.09,.48,1.09,1.09l-.36,20.45v18.63l.24,20.33c0,.6-.36,1.09-1.09,1.09h-14.76c-.73,0-1.09-.48-1.09-1.09l.12-2.42c0-.85-.73-1.09-1.21-.36-1.94,2.66-5.08,4.84-10.16,4.84-10.65,0-18.03-6.9-18.03-32.31Zm23.11,16.7c3.75,0,6.05-4.84,6.05-16.58s-2.18-16.09-6.05-16.09c-3.63,0-5.93,4.36-5.93,16.09s2.42,16.58,5.93,16.58Z"/></svg>