<?xml version="1.0" encoding="UTF-8" standalone="no"?>
<!-- Created with Inkscape (http://www.inkscape.org/) -->

<svg
   width="46.045635mm"
   height="16.338818mm"
   viewBox="0 0 174.03075 61.753013"
   version="1.1"
   id="svg1"
   inkscape:export-filename="BarkPortDGreen.svg"
   inkscape:export-xdpi="96"
   inkscape:export-ydpi="96"
   sodipodi:docname="BarkPortDGreen.svg"
   inkscape:version="1.3 (0e150ed, 2023-07-21)"
   xmlns:inkscape="http://www.inkscape.org/namespaces/inkscape"
   xmlns:sodipodi="http://sodipodi.sourceforge.net/DTD/sodipodi-0.dtd"
   xmlns="http://www.w3.org/2000/svg"
   xmlns:svg="http://www.w3.org/2000/svg">
  <sodipodi:namedview
     id="namedview1"
     pagecolor="#ffffff"
     bordercolor="#666666"
     borderopacity="1.0"
     inkscape:showpageshadow="2"
     inkscape:pageopacity="0.0"
     inkscape:pagecheckerboard="0"
     inkscape:deskcolor="#d1d1d1"
     inkscape:document-units="mm"
     inkscape:zoom="2.9203483"
     inkscape:cx="85.948652"
     inkscape:cy="30.133392"
     inkscape:window-width="1312"
     inkscape:window-height="431"
     inkscape:window-x="0"
     inkscape:window-y="25"
     inkscape:window-maximized="0"
     inkscape:current-layer="layer1" />
  <defs
     id="defs1" />
  <g
     inkscape:label="Layer 1"
     inkscape:groupmode="layer"
     id="layer1"
     transform="translate(-389.52099,-350.8747)">
    <path
       style="font-weight:500;font-size:40px;line-height:1.25;font-family:'Saans TRIAL';-inkscape-font-specification:'Saans TRIAL Medium';fill:#88a691"
       d="m 389.52099,380.0347 h 11.28 c 6.04,0 9.76,-2.96 9.76,-8.48 0,-3.72 -1.96,-6.2 -4.96,-7.32 2.2,-0.96 3.64,-3.04 3.64,-5.64 0,-4.8 -3.52,-7.4 -8.92,-7.4 h -10.8 z m 10.48,-4.12 h -5.84 v -9.16 h 5.84 c 3.88,0 5.84,1.64 5.84,4.6 0,3 -1.96,4.56 -5.84,4.56 z m -0.2,-13.2 h -5.64 v -7.64 h 5.6 c 3.16,0 4.8,1.4 4.8,3.84 0,2.44 -1.6,3.8 -4.76,3.8 z m 20.39995,17.64 c 3.12,0 5.72,-1.28 6.72,-3.36 0.16,2.24 1.68,3.28 3.84,3.28 1,0 2.04,-0.24 2.04,-0.24 v -3.6 c 0,0 -0.4,0.08 -0.68,0.08 -0.84,0 -1.36,-0.44 -1.36,-1.64 v -8.24 c 0,-4.64 -3.4,-7.68 -8.72,-7.68 -5.04,0 -8.36,2.76 -8.84,7.08 h 4.28 c 0.2,-2.32 2.04,-3.6 4.56,-3.6 2.72,0 4.36,1.4 4.36,3.2 0,1 -0.6,1.56 -1.8,1.72 l -4.44,0.6 c -4.52,0.6 -7.12,2.84 -7.12,6.44 0,3.52 2.96,5.96 7.16,5.96 z m 0.68,-3.4 c -2.08,0 -3.48,-1.12 -3.48,-2.72 0,-1.76 1.16,-2.8 3.48,-3.16 l 5.64,-0.92 v 0.76 c 0,3.56 -2.08,6.04 -5.64,6.04 z m 27.07995,-13.72 v -4.16 c -0.2,0 -0.64,-0.12 -1.52,-0.12 -2.64,0 -5.44,1.8 -6.4,4.28 v -3.96 h -4.36 v 20.76 h 4.36 v -7.76 c 0,-6.48 2.8,-9.28 5.84,-9.28 1,0 1.76,0.16 2.08,0.24 z m 2.79996,16.8 h 4.36 v -7.2 l 2.76,-2.56 6.84,9.76 h 5.44 l -9.24,-12.68 8.6,-8.08 h -6.08 l -8.32,7.92 v -16.32 h -4.36 z m 21.19995,0 h 4.36 v -29.16 h -4.36 z m 7.95995,-10.4 c 0,5.64 3.68,10.72 10.24,10.72 4.96,0 8.76,-2.52 9.48,-7.04 h -4.28 c -0.48,2.12 -2.52,3.32 -5.08,3.32 -3.36,0 -5.64,-2.16 -6.04,-5.96 h 15.44 c 0,0 0.08,-0.96 0.08,-1.76 0.04,-5.16 -3.36,-9.96 -9.8,-9.96 -6.56,0 -10.04,5.08 -10.04,10.68 z m 4.52,-2.4 c 0.64,-3.04 2.6,-4.84 5.52,-4.84 3.12,0 4.92,2.04 5.12,4.84 z m 31.91988,-7.96 -5.64,14.56 -5.52,-14.56 h -4.8 l 8.12,20.28 -0.12,0.32 c -1.16,3 -2.16,4.16 -4.36,4.16 -1.16,0 -2.2,-0.36 -2.2,-0.36 v 3.76 c 0.52,0.16 1.56,0.4 2.64,0.4 4.36,0 6.36,-2.84 7.72,-6.32 l 8.56,-22.24 z"
       id="text1"
       aria-label="Barkley" />
    <path
       style="font-weight:500;font-size:40px;line-height:1.25;font-family:'Saans TRIAL';-inkscape-font-specification:'Saans TRIAL Medium';fill:#88a691"
       d="m 413.03209,412.30771 h 4.64 v -11.48 h 7.44 c 5.68,0 9.2,-3.68 9.2,-8.72 0,-5.24 -3.52,-8.64 -9.2,-8.64 h -12.08 z m 11.48,-15.6 h -6.84 v -9.12 h 6.84 c 3.2,0 5.08,1.8 5.08,4.52 0,2.76 -1.88,4.6 -5.08,4.6 z m 21.23996,15.92 c 6,0 10.44,-4.48 10.44,-10.72 0,-6.2 -4.44,-10.68 -10.44,-10.68 -6.12,0 -10.44,4.52 -10.44,10.68 0,6.2 4.32,10.72 10.44,10.72 z m 0,-3.8 c -3.64,0 -6,-2.88 -6,-6.92 0,-4 2.36,-6.88 6,-6.88 3.48,0 5.96,2.84 5.96,6.88 0,4.04 -2.44,6.92 -5.96,6.92 z m 26.27995,-13.32 v -4.16 c -0.2,0 -0.64,-0.12 -1.52,-0.12 -2.64,0 -5.44,1.8 -6.4,4.28 v -3.96 h -4.36 v 20.76 h 4.36 v -7.76 c 0,-6.48 2.8,-9.28 5.84,-9.28 1,0 1.76,0.16 2.08,0.24 z m 13.95994,-3.96 h -5.04 v -6.2 h -4.36 v 6.2 h -3.68 v 3.68 h 3.68 v 10.8 c 0,4.48 2.8,6.6 6.88,6.6 1.12,0 2.16,-0.2 2.52,-0.32 v -3.8 c -0.32,0.08 -1.2,0.32 -2.08,0.32 -1.76,0 -2.96,-1.08 -2.96,-3.16 v -10.44 h 5.04 z m 4.99998,20.76 h 4.32 v -17.08 h 5.08 v -3.68 h -5.08 v -1.72 c 0,-2.12 1.36,-3.16 2.88,-3.16 0.8,0 1.6,0.12 2.2,0.28 v -3.8 c -0.84,-0.2 -1.76,-0.28 -2.64,-0.28 -3.88,0 -6.76,2.16 -6.76,6.6 v 2.08 h -3.68 v 3.68 h 3.68 z m 20.59997,0.32 c 6,0 10.44,-4.48 10.44,-10.72 0,-6.2 -4.44,-10.68 -10.44,-10.68 -6.12,0 -10.44,4.52 -10.44,10.68 0,6.2 4.32,10.72 10.44,10.72 z m 0,-3.8 c -3.64,0 -6,-2.88 -6,-6.92 0,-4 2.36,-6.88 6,-6.88 3.48,0 5.96,2.84 5.96,6.88 0,4.04 -2.44,6.92 -5.96,6.92 z m 13.99995,3.48 h 4.36 v -29.16 h -4.36 z m 9.11995,0 h 4.36 v -20.76 h -4.36 z m -0.2,-29.16 v 4.92 h 4.84 v -4.92 z m 18.59995,29.48 c 6,0 10.44,-4.48 10.44,-10.72 0,-6.2 -4.44,-10.68 -10.44,-10.68 -6.12,0 -10.44,4.52 -10.44,10.68 0,6.2 4.32,10.72 10.44,10.72 z m 0,-3.8 c -3.64,0 -6,-2.88 -6,-6.92 0,-4 2.36,-6.88 6,-6.88 3.48,0 5.96,2.84 5.96,6.88 0,4.04 -2.44,6.92 -5.96,6.92 z"
       id="text3"
       aria-label="Portfolio" />
  </g>
</svg>
