<?xml version="1.0" encoding="UTF-8" standalone="no"?>
<svg
   id="Layer_1"
   viewBox="0 0 267.60233 75.169194"
   version="1.1"
   sodipodi:docname="FormaFont.svg"
   width="267"
   height="75"
   inkscape:version="1.3 (0e150ed, 2023-07-21)"
   xmlns:inkscape="http://www.inkscape.org/namespaces/inkscape"
   xmlns:sodipodi="http://sodipodi.sourceforge.net/DTD/sodipodi-0.dtd"
   xmlns="http://www.w3.org/2000/svg"
   xmlns:svg="http://www.w3.org/2000/svg">
  <defs
     id="defs5" />
  <sodipodi:namedview
     id="namedview5"
     pagecolor="#ffffff"
     bordercolor="#666666"
     borderopacity="1.0"
     inkscape:showpageshadow="2"
     inkscape:pageopacity="0.0"
     inkscape:pagecheckerboard="false"
     inkscape:deskcolor="#d1d1d1"
     inkscape:zoom="4.8583696"
     inkscape:cx="112.4863"
     inkscape:cy="53.104235"
     inkscape:window-width="1440"
     inkscape:window-height="819"
     inkscape:window-x="0"
     inkscape:window-y="25"
     inkscape:window-maximized="1"
     inkscape:current-layer="Layer_1" />
  <path
     d="m 0.72999966,73.22 c -0.42,0 -0.729999997603,-0.31 -0.729999997603,-0.73 L 0.30999966,36.61 -3.37603e-7,0.73 C -3.37603e-7,0.31 0.30999966,0 0.72999966,0 H 44.04 c 0.42,0 0.73,0.31 0.73,0.73 v 6.38 c 0,0.42 -0.31,0.73 -0.73,0.73 H 9.9399992 l -0.31,25.63 H 42.36 c 0.42,0 0.73,0.31 0.73,0.73 v 6.38 c 0,0.42 -0.31,0.73 -0.73,0.73 H 9.6199992 l 0.31,31.17 c 0,0.42 -0.31,0.73 -0.73,0.73 H 0.72999966 Z"
     id="path1" />
  <path
     d="m 72.48,74.47 c -16.32,0 -25.52,-11.09 -25.52,-28.03 0,-16.94 9.2,-28.35 25.52,-28.35 16.320002,0 25.519998,11.19 25.519998,28.14 0,16.95 -9.099996,28.24 -25.519998,28.24 z m 0,-7.01 c 10.560002,0 15.690002,-7.53 15.690002,-21.02 0,-13.49 -5.23,-21.34 -15.690002,-21.34 -10.67,0.1 -15.9,7.85 -15.9,21.34 0,13.49 5.33,21.02 15.9,21.02 z"
     id="path2" />
  <path
     d="m 103.55,73.22 c -0.42,0 -0.73,-0.31 -0.73,-0.73 l 0.31,-26.78 -0.31,-25.63 c 0,-0.42 0.31,-0.73 0.73,-0.73 h 8.05 c 0.42,0 0.73,0.31 0.73,0.73 l -0.31,9.2 c 3.77,-6.8 10.77,-10.46 18.3,-10.46 1.15,0 2.3,0.1 3.24,0.31 0.42,0.1 0.73,0.52 0.73,0.94 v 6.28 c 0,0.31 -0.31,0.63 -0.73,0.52 -0.84,-0.1 -1.88,-0.21 -3.14,-0.21 -9.2,0 -17.15,5.65 -18.2,17.68 l 0.21,28.14 c 0,0.42 -0.31,0.73 -0.73,0.73 h -8.16 z"
     id="path3" />
  <path
     d="m 147.58,52.19 0.21,20.29 c 0,0.42 -0.31,0.73 -0.73,0.73 h -8.37 c -0.42,0 -0.73,-0.31 -0.73,-0.73 l 0.31,-20.29 -0.21,-32.11 c 0,-0.42 0.31,-0.73 0.73,-0.73 h 7.84 c 0.42,0 0.73,0.31 0.73,0.73 l -0.21,8.37 c 3.35,-5.65 8.58,-10.35 16.63,-10.35 7.64,0 13.18,3.56 15.48,11.3 3.87,-7.32 9.41,-11.3 16.94,-11.3 10.56,0 16.84,6.69 16.84,21.34 V 52.2 l 0.21,20.29 c 0,0.42 -0.31,0.73 -0.73,0.73 h -8.26 c -0.42,0 -0.73,-0.31 -0.73,-0.73 L 203.74,52.2 V 39.86 c 0,-10.04 -4.08,-14.12 -10.36,-14.12 -5.75,0 -10.46,5.12 -12.76,14.02 v 12.45 l 0.21,20.29 c 0,0.42 -0.31,0.73 -0.73,0.73 h -8.26 c -0.42,0 -0.73,-0.31 -0.73,-0.73 l 0.21,-20.29 V 39.87 c 0,-10.04 -4.08,-14.12 -10.36,-14.12 -6.28,0 -11.3,5.96 -13.39,16.32 v 10.15 z"
     id="path4" />
  <path
     d="m 257.62,73.22 c -0.42,0 -0.73,-0.31 -0.73,-0.73 l 0.21,-7.95 c -3.66,6.07 -9.41,9.73 -17.26,9.73 -14.54,0 -22.28,-12.24 -22.28,-27.82 0,-15.58 8.26,-28.14 22.49,-28.14 7.64,0 13.39,3.24 16.95,9.2 l -0.21,-7.43 c 0,-0.42 0.31,-0.73 0.73,-0.73 h 8.16 c 0.42,0 0.73,0.31 0.73,0.73 l -0.31,25.73 0.31,26.67 c 0,0.42 -0.31,0.73 -0.73,0.73 h -8.05 z m -15.38,-5.96 c 9.31,0 14.96,-6.9 15.06,-20.5 0.1,-13.08 -4.92,-20.82 -13.81,-21.44 h -1.78 c -9.83,0.31 -14.43,8.58 -14.43,20.4 0,12.87 4.81,21.55 14.96,21.55 z"
     id="path5" />
</svg>
