<?xml version="1.0" encoding="UTF-8"?><svg id="Layer_1" xmlns="http://www.w3.org/2000/svg" viewBox="0 0 266.4 74.47"><path d="M.73,73.22c-.42,0-.73-.31-.73-.73L.31,36.61,0,.73C0,.31,.31,0,.73,0H44.04c.42,0,.73,.31,.73,.73V7.11c0,.42-.31,.73-.73,.73H9.94l-.31,25.63H42.36c.42,0,.73,.31,.73,.73v6.38c0,.42-.31,.73-.73,.73H9.62l.31,31.17c0,.42-.31,.73-.73,.73H.73Z"/><path d="M72.48,74.47c-16.32,0-25.52-11.09-25.52-28.03s9.2-28.35,25.52-28.35,25.52,11.19,25.52,28.14-9.1,28.24-25.52,28.24Zm0-7.01c10.56,0,15.69-7.53,15.69-21.02s-5.23-21.34-15.69-21.34c-10.67,.1-15.9,7.85-15.9,21.34s5.33,21.02,15.9,21.02Z"/><path d="M103.55,73.22c-.42,0-.73-.31-.73-.73l.31-26.78-.31-25.63c0-.42,.31-.73,.73-.73h8.05c.42,0,.73,.31,.73,.73l-.31,9.2c3.77-6.8,10.77-10.46,18.3-10.46,1.15,0,2.3,.1,3.24,.31,.42,.1,.73,.52,.73,.94v6.28c0,.31-.31,.63-.73,.52-.84-.1-1.88-.21-3.14-.21-9.2,0-17.15,5.65-18.2,17.68l.21,28.14c0,.42-.31,.73-.73,.73h-8.16Z"/><path d="M147.58,52.19l.21,20.29c0,.42-.31,.73-.73,.73h-8.37c-.42,0-.73-.31-.73-.73l.31-20.29-.21-32.11c0-.42,.31-.73,.73-.73h7.84c.42,0,.73,.31,.73,.73l-.21,8.37c3.35-5.65,8.58-10.35,16.63-10.35,7.64,0,13.18,3.56,15.48,11.3,3.87-7.32,9.41-11.3,16.94-11.3,10.56,0,16.84,6.69,16.84,21.34v12.76l.21,20.29c0,.42-.31,.73-.73,.73h-8.26c-.42,0-.73-.31-.73-.73l.21-20.29v-12.34c0-10.04-4.08-14.12-10.36-14.12-5.75,0-10.46,5.12-12.76,14.02v12.45l.21,20.29c0,.42-.31,.73-.73,.73h-8.26c-.42,0-.73-.31-.73-.73l.21-20.29v-12.34c0-10.04-4.08-14.12-10.36-14.12s-11.3,5.96-13.39,16.32v10.15Z"/><path d="M257.62,73.22c-.42,0-.73-.31-.73-.73l.21-7.95c-3.66,6.07-9.41,9.73-17.26,9.73-14.54,0-22.28-12.24-22.28-27.82s8.26-28.14,22.49-28.14c7.64,0,13.39,3.24,16.95,9.2l-.21-7.43c0-.42,.31-.73,.73-.73h8.16c.42,0,.73,.31,.73,.73l-.31,25.73,.31,26.67c0,.42-.31,.73-.73,.73h-8.05Zm-15.38-5.96c9.31,0,14.96-6.9,15.06-20.5,.1-13.08-4.92-20.82-13.81-21.44h-1.78c-9.83,.31-14.43,8.58-14.43,20.4,0,12.87,4.81,21.55,14.96,21.55Z"/></svg>