<?xml version="1.0" encoding="UTF-8" standalone="no"?>
<svg
   id="Layer_1"
   viewBox="0 0 700 144.99999"
   version="1.1"
   sodipodi:docname="namespace.svg"
   width="700"
   height="145"
   inkscape:version="1.3 (0e150ed, 2023-07-21)"
   xmlns:inkscape="http://www.inkscape.org/namespaces/inkscape"
   xmlns:sodipodi="http://sodipodi.sourceforge.net/DTD/sodipodi-0.dtd"
   xmlns="http://www.w3.org/2000/svg"
   xmlns:svg="http://www.w3.org/2000/svg">
  <sodipodi:namedview
     id="namedview21"
     pagecolor="#ffffff"
     bordercolor="#666666"
     borderopacity="1.0"
     inkscape:showpageshadow="2"
     inkscape:pageopacity="0.0"
     inkscape:pagecheckerboard="0"
     inkscape:deskcolor="#d1d1d1"
     inkscape:zoom="2.5027447"
     inkscape:cx="351.01463"
     inkscape:cy="103.88595"
     inkscape:window-width="1440"
     inkscape:window-height="819"
     inkscape:window-x="0"
     inkscape:window-y="25"
     inkscape:window-maximized="1"
     inkscape:current-layer="Layer_1" />
  <defs
     id="defs1">
    <style
       id="style1">.cls-1{fill:#f05625;}.cls-2{fill:#f15523;stroke:#e9e7d7;stroke-miterlimit:10;stroke-width:8px;}</style>
  </defs>
  <g
     id="g2"
     transform="translate(2.230835,1.7691649)">
    <path
       class="cls-2"
       d="m 3.33,47.89 h 33.2 l 3.96,56.24 h 1.72 L 66.12,47.89 h 29.41 l 5.16,57.1 h 1.72 l 24.08,-57.1 h 31.99 l -40.59,88.75 H 76.95 L 75.06,85.73 H 73.34 L 53.56,136.64 H 12.62 Z"
       id="path1" />
    <path
       d="m 3.33,47.89 h 33.2 l 3.96,56.24 h 1.72 L 66.12,47.89 h 29.41 l 5.16,57.1 h 1.72 l 24.08,-57.1 h 31.99 l -40.59,88.75 H 76.95 L 75.06,85.73 H 73.34 L 53.56,136.64 H 12.62 Z"
       id="path2" />
  </g>
  <g
     id="g4"
     transform="translate(2.230835,1.7691649)">
    <path
       class="cls-2"
       d="m 142.42,47.89 h 32.16 L 159.1,136.64 H 126.94 Z M 145.17,20.2 C 146.89,10.05 155.83,3 166.15,3 c 11.01,0 17.37,7.4 15.48,17.89 -1.89,10.15 -10.66,17.37 -21.16,17.37 -10.5,0 -17.2,-7.57 -15.31,-18.06 z"
       id="path3" />
    <path
       d="m 142.42,47.89 h 32.16 L 159.1,136.64 H 126.94 Z M 145.17,20.2 C 146.89,10.05 155.83,3 166.15,3 c 11.01,0 17.37,7.4 15.48,17.89 -1.89,10.15 -10.66,17.37 -21.16,17.37 -10.5,0 -17.2,-7.57 -15.31,-18.06 z"
       id="path4" />
  </g>
  <g
     id="g6"
     transform="translate(2.230835,1.7691649)">
    <path
       class="cls-2"
       d="m 178.15,8.33 h 32.34 l -22.7,128.31 h -32.16 z"
       id="path5" />
    <path
       d="m 178.15,8.33 h 32.34 l -22.7,128.31 h -32.16 z"
       id="path6" />
  </g>
  <g
     id="g8"
     transform="translate(2.230835,1.7691649)">
    <path
       class="cls-2"
       d="m 210.9,8.33 h 32.34 l -22.7,128.31 h -32.16 z"
       id="path7" />
    <path
       d="m 210.9,8.33 h 32.34 l -22.7,128.31 h -32.16 z"
       id="path8" />
  </g>
  <g
     id="g21"
     transform="translate(2.230835,1.7691649)">
    <g
       id="g10">
      <path
         class="cls-2"
         d="m 214.1,91.92 c 4.82,-28.04 23.74,-46.27 47.13,-46.27 12.9,0 20.12,6.02 24.6,15.82 l 1.89,-0.17 2.41,-13.42 h 32.16 l -15.65,88.75 h -32.33 l 2.41,-13.07 -1.72,0.17 c -7.91,9.98 -17.2,15.14 -29.75,15.14 -23.91,0 -36.29,-18.23 -31.13,-46.96 z m 67.94,0 c 2.06,-11.18 -3.96,-19.26 -14.1,-19.26 -10.66,0 -19.78,8.43 -21.67,19.95 -2.06,11.18 3.78,19.26 14.1,19.26 10.32,0 19.78,-8.43 21.67,-19.95 z"
         id="path9" />
      <path
         class="cls-1"
         d="m 214.1,91.92 c 4.82,-28.04 23.74,-46.27 47.13,-46.27 12.9,0 20.12,6.02 24.6,15.82 l 1.89,-0.17 2.41,-13.42 h 32.16 l -15.65,88.75 h -32.33 l 2.41,-13.07 -1.72,0.17 c -7.91,9.98 -17.2,15.14 -29.75,15.14 -23.91,0 -36.29,-18.23 -31.13,-46.96 z m 67.94,0 c 2.06,-11.18 -3.96,-19.26 -14.1,-19.26 -10.66,0 -19.78,8.43 -21.67,19.95 -2.06,11.18 3.78,19.26 14.1,19.26 10.32,0 19.78,-8.43 21.67,-19.95 z"
         id="path10" />
    </g>
    <g
       id="g12">
      <path
         class="cls-2"
         d="m 309.21,47.89 h 32.16 l -2.24,13.07 1.55,-0.17 c 8.77,-10.32 17.03,-14.96 27.35,-14.96 18.58,0 29.07,14.96 25.28,35.6 l -9.63,55.21 h -32.33 l 8.77,-49.54 c 1.55,-8.6 -2.06,-14.28 -9.46,-14.28 -7.4,0 -14.79,6.36 -16.34,15.14 l -8.6,48.68 H 293.38 L 309.2,47.89 Z"
         id="path11" />
      <path
         class="cls-1"
         d="m 309.21,47.89 h 32.16 l -2.24,13.07 1.55,-0.17 c 8.77,-10.32 17.03,-14.96 27.35,-14.96 18.58,0 29.07,14.96 25.28,35.6 l -9.63,55.21 h -32.33 l 8.77,-49.54 c 1.55,-8.6 -2.06,-14.28 -9.46,-14.28 -7.4,0 -14.79,6.36 -16.34,15.14 l -8.6,48.68 H 293.38 L 309.2,47.89 Z"
         id="path12" />
    </g>
    <g
       id="g14">
      <path
         class="cls-2"
         d="m 376.19,91.92 c 4.99,-28.04 24.08,-46.27 47.3,-46.27 11.35,0 19.26,4.64 23.56,12.73 l 1.89,-0.17 8.6,-49.88 h 32.34 l -22.53,128.31 h -32.33 l 1.89,-10.32 -1.72,0.17 c -7.4,8.08 -16.17,12.38 -27.69,12.38 -23.56,0 -36.29,-18.23 -31.3,-46.96 z m 68.11,0 c 1.89,-10.84 -3.96,-19.26 -14.28,-19.26 -10.32,0 -19.61,8.6 -21.67,19.95 -1.89,11.01 3.96,19.26 14.28,19.26 10.32,0 19.78,-8.6 21.67,-19.95 z"
         id="path13" />
      <path
         class="cls-1"
         d="m 376.19,91.92 c 4.99,-28.04 24.08,-46.27 47.3,-46.27 11.35,0 19.26,4.64 23.56,12.73 l 1.89,-0.17 8.6,-49.88 h 32.34 l -22.53,128.31 h -32.33 l 1.89,-10.32 -1.72,0.17 c -7.4,8.08 -16.17,12.38 -27.69,12.38 -23.56,0 -36.29,-18.23 -31.3,-46.96 z m 68.11,0 c 1.89,-10.84 -3.96,-19.26 -14.28,-19.26 -10.32,0 -19.61,8.6 -21.67,19.95 -1.89,11.01 3.96,19.26 14.28,19.26 10.32,0 19.78,-8.6 21.67,-19.95 z"
         id="path14" />
    </g>
    <g
       id="g16">
      <path
         class="cls-2"
         d="m 469.49,47.89 h 31.99 l -2.24,12.56 1.72,-0.17 c 5.5,-8.77 14.1,-14.1 23.05,-14.1 3.61,0 7.05,0.86 9.46,2.24 l -4.64,28.55 c -4.99,-2.24 -10.84,-3.61 -14.62,-3.61 -10.15,0 -18.4,7.91 -20.47,19.44 L 486,136.66 h -32.34 l 15.82,-88.75 z"
         id="path15" />
      <path
         class="cls-1"
         d="m 469.49,47.89 h 31.99 l -2.24,12.56 1.72,-0.17 c 5.5,-8.77 14.1,-14.1 23.05,-14.1 3.61,0 7.05,0.86 9.46,2.24 l -4.64,28.55 c -4.99,-2.24 -10.84,-3.61 -14.62,-3.61 -10.15,0 -18.4,7.91 -20.47,19.44 L 486,136.66 h -32.34 l 15.82,-88.75 z"
         id="path16" />
    </g>
    <g
       id="g18">
      <path
         class="cls-2"
         d="m 512.47,91.14 c 4.99,-28.04 28.72,-45.92 57.96,-45.92 29.24,0 45.41,18.4 40.25,46.96 -0.17,2.41 -1.2,6.88 -1.89,8.6 h -64.84 c 0.52,9.63 5.68,15.48 15.31,15.48 7.91,0 14.28,-4.13 17.89,-9.8 l 26.83,5.33 c -7.22,16.51 -27.35,26.66 -49.88,26.66 -29.58,0 -46.78,-18.58 -41.62,-47.3 z m 67.42,-7.91 c 0.86,-8.77 -4.47,-15.82 -13.59,-15.82 -9.12,0 -16.17,6.36 -19.61,16.17 l 33.2,-0.34 z M 560.28,34.73 582.64,7.9 h 27.86 l -27.18,26.83 h -23.05 z"
         id="path17" />
      <path
         class="cls-1"
         d="m 512.47,91.14 c 4.99,-28.04 28.72,-45.92 57.96,-45.92 29.24,0 45.41,18.4 40.25,46.96 -0.17,2.41 -1.2,6.88 -1.89,8.6 h -64.84 c 0.52,9.63 5.68,15.48 15.31,15.48 7.91,0 14.28,-4.13 17.89,-9.8 l 26.83,5.33 c -7.22,16.51 -27.35,26.66 -49.88,26.66 -29.58,0 -46.78,-18.58 -41.62,-47.3 z m 67.42,-7.91 c 0.86,-8.77 -4.47,-15.82 -13.59,-15.82 -9.12,0 -16.17,6.36 -19.61,16.17 l 33.2,-0.34 z M 560.28,34.73 582.64,7.9 h 27.86 l -27.18,26.83 h -23.05 z"
         id="path18" />
    </g>
    <g
       id="g20">
      <path
         class="cls-2"
         d="m 592.47,91.14 c 4.82,-28.04 28.55,-45.92 57.79,-45.92 29.24,0 45.58,18.4 40.42,46.96 -0.34,2.41 -1.2,6.88 -1.89,8.6 h -64.84 c 0.34,9.63 5.68,15.48 15.14,15.48 8.08,0 14.28,-4.13 17.89,-9.8 l 27,5.33 c -7.22,16.51 -27.35,26.66 -49.88,26.66 -29.58,0 -46.78,-18.58 -41.62,-47.3 z m 67.25,-7.91 c 0.86,-8.77 -4.3,-15.82 -13.42,-15.82 -9.12,0 -16.17,6.36 -19.61,16.17 l 33.02,-0.34 z"
         id="path19" />
      <path
         class="cls-1"
         d="m 592.47,91.14 c 4.82,-28.04 28.55,-45.92 57.79,-45.92 29.24,0 45.58,18.4 40.42,46.96 -0.34,2.41 -1.2,6.88 -1.89,8.6 h -64.84 c 0.34,9.63 5.68,15.48 15.14,15.48 8.08,0 14.28,-4.13 17.89,-9.8 l 27,5.33 c -7.22,16.51 -27.35,26.66 -49.88,26.66 -29.58,0 -46.78,-18.58 -41.62,-47.3 z m 67.25,-7.91 c 0.86,-8.77 -4.3,-15.82 -13.42,-15.82 -9.12,0 -16.17,6.36 -19.61,16.17 l 33.02,-0.34 z"
         id="path20" />
    </g>
  </g>
  <rect
     style="fill:#f05625;fill-opacity:1;stroke-width:1.1;stroke-linecap:square;paint-order:stroke fill markers"
     id="rect21"
     width="4.3846006"
     height="15.115334"
     x="368.92191"
     y="96.153473" />
  <rect
     style="fill:#f05625;fill-opacity:1;stroke-width:1.1;stroke-linecap:square;paint-order:stroke fill markers"
     id="rect21-9"
     width="4.3846006"
     height="15.115334"
     x="376.21805"
     y="61.489658"
     transform="rotate(4.6)" />
  <rect
     style="fill:#000000;fill-opacity:1;stroke-width:1.1;stroke-linecap:square;paint-order:stroke fill markers"
     id="rect21-9-2"
     width="4.3846006"
     height="15.115334"
     x="215.83006"
     y="70.122429"
     transform="rotate(5.6)" />
</svg>
