<?xml version="1.0" encoding="UTF-8"?><svg id="Layer_1" xmlns="http://www.w3.org/2000/svg" viewBox="0 0 694.63 141.88"><defs><style>.cls-1{fill:#f05625;}.cls-2{fill:#f15523;stroke:#e9e7d7;stroke-miterlimit:10;stroke-width:8px;}</style></defs><g><path class="cls-2" d="M3.33,47.89H36.53l3.96,56.24h1.72l23.91-56.24h29.41l5.16,57.1h1.72l24.08-57.1h31.99l-40.59,88.75h-40.94l-1.89-50.91h-1.72l-19.78,50.91H12.62L3.33,47.89Z"/><path d="M3.33,47.89H36.53l3.96,56.24h1.72l23.91-56.24h29.41l5.16,57.1h1.72l24.08-57.1h31.99l-40.59,88.75h-40.94l-1.89-50.91h-1.72l-19.78,50.91H12.62L3.33,47.89Z"/></g><g><path class="cls-2" d="M142.42,47.89h32.16l-15.48,88.75h-32.16l15.48-88.75Zm2.75-27.69c1.72-10.15,10.66-17.2,20.98-17.2,11.01,0,17.37,7.4,15.48,17.89-1.89,10.15-10.66,17.37-21.16,17.37s-17.2-7.57-15.31-18.06Z"/><path d="M142.42,47.89h32.16l-15.48,88.75h-32.16l15.48-88.75Zm2.75-27.69c1.72-10.15,10.66-17.2,20.98-17.2,11.01,0,17.37,7.4,15.48,17.89-1.89,10.15-10.66,17.37-21.16,17.37s-17.2-7.57-15.31-18.06Z"/></g><g><path class="cls-2" d="M178.15,8.33h32.34l-22.7,128.31h-32.16L178.15,8.33Z"/><path d="M178.15,8.33h32.34l-22.7,128.31h-32.16L178.15,8.33Z"/></g><g><path class="cls-2" d="M210.9,8.33h32.34l-22.7,128.31h-32.16L210.9,8.33Z"/><path d="M210.9,8.33h32.34l-22.7,128.31h-32.16L210.9,8.33Z"/></g><g><g><path class="cls-2" d="M214.1,91.92c4.82-28.04,23.74-46.27,47.13-46.27,12.9,0,20.12,6.02,24.6,15.82l1.89-.17,2.41-13.42h32.16l-15.65,88.75h-32.33l2.41-13.07-1.72,.17c-7.91,9.98-17.2,15.14-29.75,15.14-23.91,0-36.29-18.23-31.13-46.96Zm67.94,0c2.06-11.18-3.96-19.26-14.1-19.26-10.66,0-19.78,8.43-21.67,19.95-2.06,11.18,3.78,19.26,14.1,19.26s19.78-8.43,21.67-19.95Z"/><path class="cls-1" d="M214.1,91.92c4.82-28.04,23.74-46.27,47.13-46.27,12.9,0,20.12,6.02,24.6,15.82l1.89-.17,2.41-13.42h32.16l-15.65,88.75h-32.33l2.41-13.07-1.72,.17c-7.91,9.98-17.2,15.14-29.75,15.14-23.91,0-36.29-18.23-31.13-46.96Zm67.94,0c2.06-11.18-3.96-19.26-14.1-19.26-10.66,0-19.78,8.43-21.67,19.95-2.06,11.18,3.78,19.26,14.1,19.26s19.78-8.43,21.67-19.95Z"/></g><g><path class="cls-2" d="M309.21,47.89h32.16l-2.24,13.07,1.55-.17c8.77-10.32,17.03-14.96,27.35-14.96,18.58,0,29.07,14.96,25.28,35.6l-9.63,55.21h-32.33l8.77-49.54c1.55-8.6-2.06-14.28-9.46-14.28s-14.79,6.36-16.34,15.14l-8.6,48.68h-32.34l15.82-88.75Z"/><path class="cls-1" d="M309.21,47.89h32.16l-2.24,13.07,1.55-.17c8.77-10.32,17.03-14.96,27.35-14.96,18.58,0,29.07,14.96,25.28,35.6l-9.63,55.21h-32.33l8.77-49.54c1.55-8.6-2.06-14.28-9.46-14.28s-14.79,6.36-16.34,15.14l-8.6,48.68h-32.34l15.82-88.75Z"/></g><g><path class="cls-2" d="M376.19,91.92c4.99-28.04,24.08-46.27,47.3-46.27,11.35,0,19.26,4.64,23.56,12.73l1.89-.17,8.6-49.88h32.34l-22.53,128.31h-32.33l1.89-10.32-1.72,.17c-7.4,8.08-16.17,12.38-27.69,12.38-23.56,0-36.29-18.23-31.3-46.96Zm68.11,0c1.89-10.84-3.96-19.26-14.28-19.26s-19.61,8.6-21.67,19.95c-1.89,11.01,3.96,19.26,14.28,19.26s19.78-8.6,21.67-19.95Z"/><path class="cls-1" d="M376.19,91.92c4.99-28.04,24.08-46.27,47.3-46.27,11.35,0,19.26,4.64,23.56,12.73l1.89-.17,8.6-49.88h32.34l-22.53,128.31h-32.33l1.89-10.32-1.72,.17c-7.4,8.08-16.17,12.38-27.69,12.38-23.56,0-36.29-18.23-31.3-46.96Zm68.11,0c1.89-10.84-3.96-19.26-14.28-19.26s-19.61,8.6-21.67,19.95c-1.89,11.01,3.96,19.26,14.28,19.26s19.78-8.6,21.67-19.95Z"/></g><g><path class="cls-2" d="M469.49,47.89h31.99l-2.24,12.56,1.72-.17c5.5-8.77,14.1-14.1,23.05-14.1,3.61,0,7.05,.86,9.46,2.24l-4.64,28.55c-4.99-2.24-10.84-3.61-14.62-3.61-10.15,0-18.4,7.91-20.47,19.44l-7.74,43.86h-32.34l15.82-88.75Z"/><path class="cls-1" d="M469.49,47.89h31.99l-2.24,12.56,1.72-.17c5.5-8.77,14.1-14.1,23.05-14.1,3.61,0,7.05,.86,9.46,2.24l-4.64,28.55c-4.99-2.24-10.84-3.61-14.62-3.61-10.15,0-18.4,7.91-20.47,19.44l-7.74,43.86h-32.34l15.82-88.75Z"/></g><g><path class="cls-2" d="M512.47,91.14c4.99-28.04,28.72-45.92,57.96-45.92s45.41,18.4,40.25,46.96c-.17,2.41-1.2,6.88-1.89,8.6h-64.84c.52,9.63,5.68,15.48,15.31,15.48,7.91,0,14.28-4.13,17.89-9.8l26.83,5.33c-7.22,16.51-27.35,26.66-49.88,26.66-29.58,0-46.78-18.58-41.62-47.3Zm67.42-7.91c.86-8.77-4.47-15.82-13.59-15.82s-16.17,6.36-19.61,16.17l33.2-.34Zm-19.61-48.5l22.36-26.83h27.86l-27.18,26.83h-23.05Z"/><path class="cls-1" d="M512.47,91.14c4.99-28.04,28.72-45.92,57.96-45.92s45.41,18.4,40.25,46.96c-.17,2.41-1.2,6.88-1.89,8.6h-64.84c.52,9.63,5.68,15.48,15.31,15.48,7.91,0,14.28-4.13,17.89-9.8l26.83,5.33c-7.22,16.51-27.35,26.66-49.88,26.66-29.58,0-46.78-18.58-41.62-47.3Zm67.42-7.91c.86-8.77-4.47-15.82-13.59-15.82s-16.17,6.36-19.61,16.17l33.2-.34Zm-19.61-48.5l22.36-26.83h27.86l-27.18,26.83h-23.05Z"/></g><g><path class="cls-2" d="M592.47,91.14c4.82-28.04,28.55-45.92,57.79-45.92s45.58,18.4,40.42,46.96c-.34,2.41-1.2,6.88-1.89,8.6h-64.84c.34,9.63,5.68,15.48,15.14,15.48,8.08,0,14.28-4.13,17.89-9.8l27,5.33c-7.22,16.51-27.35,26.66-49.88,26.66-29.58,0-46.78-18.58-41.62-47.3Zm67.25-7.91c.86-8.77-4.3-15.82-13.42-15.82s-16.17,6.36-19.61,16.17l33.02-.34Z"/><path class="cls-1" d="M592.47,91.14c4.82-28.04,28.55-45.92,57.79-45.92s45.58,18.4,40.42,46.96c-.34,2.41-1.2,6.88-1.89,8.6h-64.84c.34,9.63,5.68,15.48,15.14,15.48,8.08,0,14.28-4.13,17.89-9.8l27,5.33c-7.22,16.51-27.35,26.66-49.88,26.66-29.58,0-46.78-18.58-41.62-47.3Zm67.25-7.91c.86-8.77-4.3-15.82-13.42-15.82s-16.17,6.36-19.61,16.17l33.02-.34Z"/></g></g></svg>