<?xml version="1.0" encoding="UTF-8" standalone="no"?>
<svg
   height="1350"
   width="1800"
   xml:space="preserve"
   viewBox="0 0 1799.9999 1349.9999"
   y="0px"
   x="0px"
   id="Capa_1"
   version="1.1"
   xmlns="http://www.w3.org/2000/svg"
   xmlns:svg="http://www.w3.org/2000/svg"><defs
   id="defs949"><rect
   id="rect1685"
   height="193.5388"
   width="574.61523"
   y="603.12091"
   x="358.5719" /><rect
   id="rect1679"
   height="168.03371"
   width="562.61279"
   y="357.07159"
   x="-109.52196" /><rect
   id="rect988"
   height="257.26068"
   width="1692.6121"
   y="208.25865"
   x="2062.1689" /><rect
   id="rect963"
   height="91.960106"
   width="236.6842"
   y="330.15182"
   x="467.33823" /><rect
   id="rect957"
   height="461.30804"
   width="896.98785"
   y="312.06134"
   x="274.37277" />&#10;	&#10;</defs>&#10;&#10;<rect
   style="fill:#f2f0e1;fill-opacity:1;stroke-width:1.1;stroke-linecap:square;paint-order:stroke fill markers"
   id="rect2"
   width="1818.1339"
   height="1366.5104"
   x="-4.6559143"
   y="-4.6558838" /><g
   transform="translate(-1383.4043,-168.37565)"
   id="g916">&#10;</g>&#10;<g
   transform="translate(-1383.4043,-168.37565)"
   id="g918">&#10;</g>&#10;<g
   transform="translate(-1383.4043,-168.37565)"
   id="g920">&#10;</g>&#10;<g
   transform="translate(-1383.4043,-168.37565)"
   id="g922">&#10;</g>&#10;<g
   transform="translate(-1383.4043,-168.37565)"
   id="g924">&#10;</g>&#10;<g
   transform="translate(-1383.4043,-168.37565)"
   id="g926">&#10;</g>&#10;<g
   transform="translate(-1383.4043,-168.37565)"
   id="g928">&#10;</g>&#10;<g
   transform="translate(-1383.4043,-168.37565)"
   id="g930">&#10;</g>&#10;<g
   transform="translate(-1383.4043,-168.37565)"
   id="g932">&#10;</g>&#10;<g
   transform="translate(-1383.4043,-168.37565)"
   id="g934">&#10;</g>&#10;<g
   transform="translate(-1383.4043,-168.37565)"
   id="g936">&#10;</g>&#10;<g
   transform="translate(-1383.4043,-168.37565)"
   id="g938">&#10;</g>&#10;<g
   transform="translate(-1383.4043,-168.37565)"
   id="g940">&#10;</g>&#10;<g
   transform="translate(-1383.4043,-168.37565)"
   id="g942">&#10;</g>&#10;<g
   transform="translate(-1383.4043,-168.37565)"
   id="g944">&#10;</g>&#10;<text
   transform="translate(-1717.4246,-346.98167)"
   style="font-style:normal;font-weight:normal;font-size:40px;line-height:1.25;font-family:sans-serif;white-space:pre;shape-inside:url(#rect963);mix-blend-mode:normal;fill:#000000;fill-opacity:1;stroke:none"
   id="text961"
   xml:space="preserve" /><text
   transform="translate(-1717.4246,-346.98167)"
   style="font-style:normal;font-weight:normal;font-size:40px;line-height:1.25;font-family:sans-serif;white-space:pre;shape-inside:url(#rect988);mix-blend-mode:normal;fill:#000000;fill-opacity:1;stroke:none"
   id="text986"
   xml:space="preserve" /><g
   aria-label="NORMAN"
   transform="matrix(0.76679605,0,0,0.76679605,-127.87727,-194.65837)"
   id="text955"
   style="font-style:normal;font-weight:normal;font-size:192px;line-height:1.25;font-family:sans-serif;white-space:pre;shape-inside:url(#rect957);fill:#000000;fill-opacity:1;stroke:none" /><g
   id="g1"
   transform="matrix(0.76201505,0,0,0.76201505,587.33025,547.86726)"><g
     transform="matrix(0.73213454,0,0,0.73213454,-111.85918,-182.1821)"
     aria-label="XXX    STUDIO NORMAN   XXXXXXXXXXXXXXXXXXXXXXXXXX                                         XXXXXXXXXXXXXXXXXXXXX"
     id="text970"
     style="font-style:normal;font-variant:normal;font-weight:bold;font-stretch:condensed;font-size:53.3333px;line-height:1.25;font-family:'GT America Trial';-inkscape-font-specification:'GT America Trial Bold Condensed';fill:#000000;fill-opacity:1;stroke:none"><path
       d="m 269.5346,286.50895 -11.28,17.712 h 8.784 l 5.904,-9.984 c 0.576,-0.912 1.056,-1.92 1.296,-2.64 h 0.096 c 0.288,0.768 0.624,1.392 1.344,2.544 l 6.192,10.08 h 9.12 l -11.376,-17.232 10.56,-16.848 h -8.784 l -5.76,9.552 c -0.432,0.768 -0.768,1.392 -1.008,2.16 h -0.096 c -0.24,-0.768 -0.576,-1.392 -1.008,-2.16 l -5.616,-9.552 h -8.976 z"
       style="font-style:normal;font-variant:normal;font-weight:bold;font-stretch:normal;font-size:48px;font-family:'GT America Trial';-inkscape-font-specification:'GT America Trial Bold';fill:#000000;fill-opacity:1"
       id="path1054" /><path
       d="m 303.0971,286.50895 -11.28,17.712 h 8.784 l 5.904,-9.984 c 0.576,-0.912 1.056,-1.92 1.296,-2.64 h 0.096 c 0.288,0.768 0.624,1.392 1.344,2.544 l 6.192,10.08 h 9.12 l -11.376,-17.232 10.56,-16.848 h -8.784 l -5.76,9.552 c -0.432,0.768 -0.768,1.392 -1.008,2.16 h -0.096 c -0.24,-0.768 -0.576,-1.392 -1.008,-2.16 l -5.616,-9.552 h -8.976 z"
       style="font-style:normal;font-variant:normal;font-weight:bold;font-stretch:normal;font-size:48px;font-family:'GT America Trial';-inkscape-font-specification:'GT America Trial Bold';fill:#000000;fill-opacity:1"
       id="path1056" /><path
       d="m 336.6596,286.50895 -11.28,17.712 h 8.784 l 5.904,-9.984 c 0.576,-0.912 1.056,-1.92 1.296,-2.64 h 0.096 c 0.288,0.768 0.624,1.392 1.344,2.544 l 6.192,10.08 h 9.12 l -11.376,-17.232 10.56,-16.848 h -8.784 l -5.76,9.552 c -0.432,0.768 -0.768,1.392 -1.008,2.16 h -0.096 c -0.24,-0.768 -0.576,-1.392 -1.008,-2.16 l -5.616,-9.552 h -8.976 z"
       style="font-style:normal;font-variant:normal;font-weight:bold;font-stretch:normal;font-size:48px;font-family:'GT America Trial';-inkscape-font-specification:'GT America Trial Bold';fill:#000000;fill-opacity:1"
       id="path1058" /><path
       d="m 402.8156,305.03695 c 6.288,0 9.552,-3.408 9.552,-8.304 v -2.592 c 0,-3.6 -0.96,-6 -4.8,-8.352 l -4.896,-2.976 c -1.584,-1.008 -2.448,-2.256 -2.448,-4.032 v -1.536 c 0,-1.632 0.96,-2.88 2.64,-2.88 2.016,0 2.832,1.488 2.832,3.792 v 3.648 l 6.624,-1.248 v -2.496 c 0,-6.432 -3.648,-8.736 -9.456,-8.736 -5.232,0 -9.36,2.736 -9.36,8.304 v 1.776 c 0,3.6 1.2,6.144 4.704,8.256 l 4.848,2.976 c 2.16,1.392 2.496,2.448 2.496,4.56 v 1.392 c 0,1.872 -0.768,3.312 -2.688,3.312 -1.968,0 -2.88,-1.584 -2.88,-4.32 v -3.888 l -6.768,1.296 v 2.736 c 0,5.712 3.456,9.312 9.6,9.312 z"
       style="font-style:normal;font-variant:normal;font-weight:bold;font-stretch:ultra-condensed;font-family:'GT America Trial';-inkscape-font-specification:'GT America Trial Bold Ultra-Condensed';fill:#000000;fill-opacity:1"
       id="path1060" /><path
       d="m 432.6086,275.80495 v -5.664 h -19.584 v 5.664 h 6.48 v 28.416 h 6.624 v -28.416 z"
       style="font-style:normal;font-variant:normal;font-weight:bold;font-stretch:ultra-condensed;font-family:'GT America Trial';-inkscape-font-specification:'GT America Trial Bold Ultra-Condensed';fill:#000000;fill-opacity:1"
       id="path1062" /><path
       d="m 441.4046,270.14095 h -6.672 v 25.776 c 0,5.616 3.456,9.12 9.744,9.12 6.24,0 9.696,-3.504 9.696,-9.12 v -25.776 h -6.624 v 25.488 c 0,2.448 -1.152,3.792 -3.072,3.792 -2.016,0 -3.072,-1.344 -3.072,-3.792 z"
       style="font-style:normal;font-variant:normal;font-weight:bold;font-stretch:ultra-condensed;font-family:'GT America Trial';-inkscape-font-specification:'GT America Trial Bold Ultra-Condensed';fill:#000000;fill-opacity:1"
       id="path1064" /><path
       d="m 458.73935,270.14095 v 34.08 h 8.976 c 7.2,0 10.992,-4.224 10.992,-12.24 v -10.08 c 0,-7.68 -3.84,-11.76 -10.944,-11.76 z m 8.736,29.232 h -2.064 v -24.384 h 2.064 c 3.072,0 4.368,2.064 4.368,6.624 v 10.848 c 0,4.464 -1.392,6.912 -4.368,6.912 z"
       style="font-style:normal;font-variant:normal;font-weight:bold;font-stretch:ultra-condensed;font-family:'GT America Trial';-inkscape-font-specification:'GT America Trial Bold Ultra-Condensed';fill:#000000;fill-opacity:1"
       id="path1066" /><path
       d="m 482.55185,304.22095 h 6.672 v -34.08 h -6.672 z"
       style="font-style:normal;font-variant:normal;font-weight:bold;font-stretch:ultra-condensed;font-family:'GT America Trial';-inkscape-font-specification:'GT America Trial Bold Ultra-Condensed';fill:#000000;fill-opacity:1"
       id="path1068" /><path
       d="m 503.3951,305.03695 c 6.528,0 10.368,-3.84 10.368,-10.8 v -14.112 c 0,-6.96 -3.84,-10.8 -10.368,-10.8 -6.48,0 -10.32,3.84 -10.32,10.8 v 14.112 c 0,6.96 3.84,10.8 10.32,10.8 z m 0,-5.232 c -2.208,0 -3.456,-1.68 -3.456,-4.752 v -15.744 c 0,-3.072 1.248,-4.752 3.456,-4.752 2.256,0 3.504,1.68 3.504,4.752 v 15.744 c 0,3.072 -1.248,4.752 -3.504,4.752 z"
       style="font-style:normal;font-variant:normal;font-weight:bold;font-stretch:ultra-condensed;font-family:'GT America Trial';-inkscape-font-specification:'GT America Trial Bold Ultra-Condensed';fill:#000000;fill-opacity:1"
       id="path1070" /><path
       d="m 525.67682,270.14095 v 34.08 h 5.904 v -16.704 c 0,-2.304 -0.144,-4.416 -0.24,-6.624 h 0.144 c 0.384,1.728 0.816,3.36 1.488,5.376 l 6.24,17.952 h 6.432 v -34.08 h -5.856 v 14.112 c 0,2.544 0.096,5.04 0.24,7.536 h -0.096 c -0.384,-1.68 -0.864,-3.408 -1.392,-5.088 l -5.712,-16.56 z"
       style="font-style:normal;font-variant:normal;font-weight:bold;font-stretch:ultra-condensed;font-family:'GT America Trial';-inkscape-font-specification:'GT America Trial Bold Ultra-Condensed';fill:#000000;fill-opacity:1"
       id="path1072" /><path
       d="m 559.83257,305.03695 c 6.528,0 10.368,-3.84 10.368,-10.8 v -14.112 c 0,-6.96 -3.84,-10.8 -10.368,-10.8 -6.48,0 -10.32,3.84 -10.32,10.8 v 14.112 c 0,6.96 3.84,10.8 10.32,10.8 z m 0,-5.232 c -2.208,0 -3.456,-1.68 -3.456,-4.752 v -15.744 c 0,-3.072 1.248,-4.752 3.456,-4.752 2.256,0 3.504,1.68 3.504,4.752 v 15.744 c 0,3.072 -1.248,4.752 -3.504,4.752 z"
       style="font-style:normal;font-variant:normal;font-weight:bold;font-stretch:ultra-condensed;font-family:'GT America Trial';-inkscape-font-specification:'GT America Trial Bold Ultra-Condensed';fill:#000000;fill-opacity:1"
       id="path1074" /><path
       d="m 583.12382,290.34895 3.744,13.872 h 6.96 l -4.8,-15.456 c 2.544,-1.248 4.032,-3.84 4.032,-7.872 v -1.632 c -0.048,-5.712 -2.832,-9.12 -9.936,-9.12 h -9.072 v 34.08 h 6.672 v -13.872 z m -0.432,-4.272 h -1.968 v -11.328 h 1.968 c 2.544,0 3.504,1.2 3.504,4.32 v 2.16 c 0,3.312 -0.912,4.848 -3.504,4.848 z"
       style="font-style:normal;font-variant:normal;font-weight:bold;font-stretch:ultra-condensed;font-family:'GT America Trial';-inkscape-font-specification:'GT America Trial Bold Ultra-Condensed';fill:#000000;fill-opacity:1"
       id="path1076" /><path
       d="m 596.73932,270.14095 v 34.08 h 5.664 v -17.136 c 0,-2.736 0,-6.528 -0.144,-9.264 h 0.24 c 0.048,1.008 0.336,2.88 0.624,5.04 l 3.648,21.36 h 4.8 l 3.6,-21.36 c 0.336,-2.16 0.48,-3.408 0.672,-5.04 h 0.192 c -0.144,2.736 -0.144,6.528 -0.144,9.264 v 17.136 h 5.76 v -34.08 h -8.976 l -2.832,17.712 c -0.24,1.824 -0.528,3.696 -0.528,4.992 h -0.192 c -0.048,-1.296 -0.288,-3.168 -0.576,-4.992 l -2.88,-17.712 z"
       style="font-style:normal;font-variant:normal;font-weight:bold;font-stretch:ultra-condensed;font-family:'GT America Trial';-inkscape-font-specification:'GT America Trial Bold Ultra-Condensed';fill:#000000;fill-opacity:1"
       id="path1078" /><path
       d="m 638.74382,296.25295 1.248,7.968 h 6.672 l -6.624,-34.08 h -8.736 l -6.672,34.08 h 6.672 l 1.248,-7.968 z m -0.72,-4.848 h -4.752 l 1.68,-10.752 c 0.24,-1.632 0.48,-3.024 0.624,-4.848 h 0.144 c 0.192,1.824 0.384,3.216 0.624,4.848 z"
       style="font-style:normal;font-variant:normal;font-weight:bold;font-stretch:ultra-condensed;font-family:'GT America Trial';-inkscape-font-specification:'GT America Trial Bold Ultra-Condensed';fill:#000000;fill-opacity:1"
       id="path1080" /><path
       d="m 649.70807,270.14095 v 34.08 h 5.904 v -16.704 c 0,-2.304 -0.144,-4.416 -0.24,-6.624 h 0.144 c 0.384,1.728 0.816,3.36 1.488,5.376 l 6.24,17.952 h 6.432 v -34.08 h -5.856 v 14.112 c 0,2.544 0.096,5.04 0.24,7.536 h -0.096 c -0.384,-1.68 -0.864,-3.408 -1.392,-5.088 l -5.712,-16.56 z"
       style="font-style:normal;font-variant:normal;font-weight:bold;font-stretch:ultra-condensed;font-family:'GT America Trial';-inkscape-font-specification:'GT America Trial Bold Ultra-Condensed';fill:#000000;fill-opacity:1"
       id="path1082" /><path
       d="m 711.47207,286.50895 -11.28,17.712 h 8.784 l 5.904,-9.984 c 0.576,-0.912 1.056,-1.92 1.296,-2.64 h 0.096 c 0.288,0.768 0.624,1.392 1.344,2.544 l 6.192,10.08 h 9.12 l -11.376,-17.232 10.56,-16.848 h -8.784 l -5.76,9.552 c -0.432,0.768 -0.768,1.392 -1.008,2.16 h -0.096 c -0.24,-0.768 -0.576,-1.392 -1.008,-2.16 l -5.616,-9.552 h -8.976 z"
       style="font-style:normal;font-variant:normal;font-weight:bold;font-stretch:normal;font-size:48px;font-family:'GT America Trial';-inkscape-font-specification:'GT America Trial Bold';fill:#000000;fill-opacity:1"
       id="path1084" /><path
       d="m 745.03457,286.50895 -11.28,17.712 h 8.784 l 5.904,-9.984 c 0.576,-0.912 1.056,-1.92 1.296,-2.64 h 0.096 c 0.288,0.768 0.624,1.392 1.344,2.544 l 6.192,10.08 h 9.12 l -11.376,-17.232 10.56,-16.848 h -8.784 l -5.76,9.552 c -0.432,0.768 -0.768,1.392 -1.008,2.16 h -0.096 c -0.24,-0.768 -0.576,-1.392 -1.008,-2.16 l -5.616,-9.552 h -8.976 z"
       style="font-style:normal;font-variant:normal;font-weight:bold;font-stretch:normal;font-size:48px;font-family:'GT America Trial';-inkscape-font-specification:'GT America Trial Bold';fill:#000000;fill-opacity:1"
       id="path1086" /><path
       d="m 778.59707,286.50895 -11.28,17.712 h 8.784 l 5.904,-9.984 c 0.576,-0.912 1.056,-1.92 1.296,-2.64 h 0.096 c 0.288,0.768 0.624,1.392 1.344,2.544 l 6.192,10.08 h 9.12 l -11.376,-17.232 10.56,-16.848 h -8.784 l -5.76,9.552 c -0.432,0.768 -0.768,1.392 -1.008,2.16 h -0.096 c -0.24,-0.768 -0.576,-1.392 -1.008,-2.16 l -5.616,-9.552 h -8.976 z"
       style="font-style:normal;font-variant:normal;font-weight:bold;font-stretch:normal;font-size:48px;font-family:'GT America Trial';-inkscape-font-specification:'GT America Trial Bold';fill:#000000;fill-opacity:1"
       id="path1088" /><path
       d="m 812.15957,286.50895 -11.28,17.712 h 8.784 l 5.904,-9.984 c 0.576,-0.912 1.056,-1.92 1.296,-2.64 h 0.096 c 0.288,0.768 0.624,1.392 1.344,2.544 l 6.192,10.08 h 9.12 l -11.376,-17.232 10.56,-16.848 h -8.784 l -5.76,9.552 c -0.432,0.768 -0.768,1.392 -1.008,2.16 h -0.096 c -0.24,-0.768 -0.576,-1.392 -1.008,-2.16 l -5.616,-9.552 h -8.976 z"
       style="font-style:normal;font-variant:normal;font-weight:bold;font-stretch:normal;font-size:48px;font-family:'GT America Trial';-inkscape-font-specification:'GT America Trial Bold';fill:#000000;fill-opacity:1"
       id="path1090" /><path
       d="m 845.72207,286.50895 -11.28,17.712 h 8.784 l 5.904,-9.984 c 0.576,-0.912 1.056,-1.92 1.296,-2.64 h 0.096 c 0.288,0.768 0.624,1.392 1.344,2.544 l 6.192,10.08 h 9.12 l -11.376,-17.232 10.56,-16.848 h -8.784 l -5.76,9.552 c -0.432,0.768 -0.768,1.392 -1.008,2.16 h -0.096 c -0.24,-0.768 -0.576,-1.392 -1.008,-2.16 l -5.616,-9.552 h -8.976 z"
       style="font-style:normal;font-variant:normal;font-weight:bold;font-stretch:normal;font-size:48px;font-family:'GT America Trial';-inkscape-font-specification:'GT America Trial Bold';fill:#000000;fill-opacity:1"
       id="path1092" /><path
       d="m 879.28457,286.50895 -11.28,17.712 h 8.784 l 5.904,-9.984 c 0.576,-0.912 1.056,-1.92 1.296,-2.64 h 0.096 c 0.288,0.768 0.624,1.392 1.344,2.544 l 6.192,10.08 h 9.12 l -11.376,-17.232 10.56,-16.848 h -8.784 l -5.76,9.552 c -0.432,0.768 -0.768,1.392 -1.008,2.16 h -0.096 c -0.24,-0.768 -0.576,-1.392 -1.008,-2.16 l -5.616,-9.552 h -8.976 z"
       style="font-style:normal;font-variant:normal;font-weight:bold;font-stretch:normal;font-size:48px;font-family:'GT America Trial';-inkscape-font-specification:'GT America Trial Bold';fill:#000000;fill-opacity:1"
       id="path1094" /><path
       d="m 912.84707,286.50895 -11.28,17.712 h 8.784 l 5.904,-9.984 c 0.576,-0.912 1.056,-1.92 1.296,-2.64 h 0.096 c 0.288,0.768 0.624,1.392 1.344,2.544 l 6.192,10.08 h 9.12 l -11.376,-17.232 10.56,-16.848 h -8.784 l -5.76,9.552 c -0.432,0.768 -0.768,1.392 -1.008,2.16 h -0.096 c -0.24,-0.768 -0.576,-1.392 -1.008,-2.16 l -5.616,-9.552 h -8.976 z"
       style="font-style:normal;font-variant:normal;font-weight:bold;font-stretch:normal;font-size:48px;font-family:'GT America Trial';-inkscape-font-specification:'GT America Trial Bold';fill:#000000;fill-opacity:1"
       id="path1096" /><path
       d="m 946.40957,286.50895 -11.28,17.712 h 8.784 l 5.904,-9.984 c 0.576,-0.912 1.056,-1.92 1.296,-2.64 h 0.096 c 0.288,0.768 0.624,1.392 1.344,2.544 l 6.192,10.08 h 9.12 l -11.376,-17.232 10.56,-16.848 h -8.784 l -5.76,9.552 c -0.432,0.768 -0.768,1.392 -1.008,2.16 h -0.096 c -0.24,-0.768 -0.576,-1.392 -1.008,-2.16 l -5.616,-9.552 h -8.976 z"
       style="font-style:normal;font-variant:normal;font-weight:bold;font-stretch:normal;font-size:48px;font-family:'GT America Trial';-inkscape-font-specification:'GT America Trial Bold';fill:#000000;fill-opacity:1"
       id="path1098" /><path
       d="m 979.97207,286.50895 -11.28,17.712 h 8.784 l 5.904,-9.984 c 0.576,-0.912 1.056,-1.92 1.296,-2.64 h 0.096 c 0.288,0.768 0.624,1.392 1.344,2.544 l 6.192,10.08 h 9.12003 l -11.37603,-17.232 10.56003,-16.848 h -8.78403 l -5.76,9.552 c -0.432,0.768 -0.768,1.392 -1.008,2.16 h -0.096 c -0.24,-0.768 -0.576,-1.392 -1.008,-2.16 l -5.616,-9.552 h -8.976 z"
       style="font-style:normal;font-variant:normal;font-weight:bold;font-stretch:normal;font-size:48px;font-family:'GT America Trial';-inkscape-font-specification:'GT America Trial Bold';fill:#000000;fill-opacity:1"
       id="path1100" /><path
       d="m 1013.5346,286.50895 -11.28,17.712 h 8.784 l 5.904,-9.984 c 0.576,-0.912 1.056,-1.92 1.296,-2.64 h 0.096 c 0.288,0.768 0.624,1.392 1.344,2.544 l 6.192,10.08 h 9.12 l -11.376,-17.232 10.56,-16.848 h -8.784 l -5.76,9.552 c -0.432,0.768 -0.768,1.392 -1.008,2.16 h -0.096 c -0.24,-0.768 -0.576,-1.392 -1.008,-2.16 l -5.616,-9.552 h -8.976 z"
       style="font-style:normal;font-variant:normal;font-weight:bold;font-stretch:normal;font-size:48px;font-family:'GT America Trial';-inkscape-font-specification:'GT America Trial Bold';fill:#000000;fill-opacity:1"
       id="path1102" /><path
       d="m 1047.0971,286.50895 -11.28,17.712 h 8.784 l 5.904,-9.984 c 0.576,-0.912 1.056,-1.92 1.296,-2.64 h 0.096 c 0.288,0.768 0.624,1.392 1.344,2.544 l 6.192,10.08 h 9.12 l -11.376,-17.232 10.56,-16.848 h -8.784 l -5.76,9.552 c -0.432,0.768 -0.768,1.392 -1.008,2.16 h -0.096 c -0.24,-0.768 -0.576,-1.392 -1.008,-2.16 l -5.616,-9.552 h -8.976 z"
       style="font-style:normal;font-variant:normal;font-weight:bold;font-stretch:normal;font-size:48px;font-family:'GT America Trial';-inkscape-font-specification:'GT America Trial Bold';fill:#000000;fill-opacity:1"
       id="path1104" /><path
       d="m 1080.6596,286.50895 -11.28,17.712 h 8.784 l 5.904,-9.984 c 0.576,-0.912 1.056,-1.92 1.296,-2.64 h 0.096 c 0.288,0.768 0.624,1.392 1.344,2.544 l 6.192,10.08 h 9.12 l -11.376,-17.232 10.56,-16.848 h -8.784 l -5.76,9.552 c -0.432,0.768 -0.768,1.392 -1.008,2.16 h -0.096 c -0.24,-0.768 -0.576,-1.392 -1.008,-2.16 l -5.616,-9.552 h -8.976 z"
       style="font-style:normal;font-variant:normal;font-weight:bold;font-stretch:normal;font-size:48px;font-family:'GT America Trial';-inkscape-font-specification:'GT America Trial Bold';fill:#000000;fill-opacity:1"
       id="path1106" /><path
       d="m 1114.2221,286.50895 -11.28,17.712 h 8.784 l 5.904,-9.984 c 0.576,-0.912 1.056,-1.92 1.296,-2.64 h 0.096 c 0.288,0.768 0.624,1.392 1.344,2.544 l 6.192,10.08 h 9.12 l -11.376,-17.232 10.56,-16.848 h -8.784 l -5.76,9.552 c -0.432,0.768 -0.768,1.392 -1.008,2.16 h -0.096 c -0.24,-0.768 -0.576,-1.392 -1.008,-2.16 l -5.616,-9.552 h -8.976 z"
       style="font-style:normal;font-variant:normal;font-weight:bold;font-stretch:normal;font-size:48px;font-family:'GT America Trial';-inkscape-font-specification:'GT America Trial Bold';fill:#000000;fill-opacity:1"
       id="path1108" /><path
       d="m 1147.8467,286.49127 -11.3421,17.67229 8.784,0.0308 5.939,-9.96321 c 0.5792,-0.90998 1.0627,-1.91629 1.3052,-2.63544 l 0.096,3.4e-4 c 0.2853,0.769 0.6192,1.39418 1.3351,2.5487 l 6.1566,10.10167 9.1199,0.032 -11.3154,-17.27183 10.6191,-16.81083 -8.784,-0.0308 -5.7935,9.53172 c -0.4347,0.76648 -0.7729,1.3893 -1.0156,2.15645 l -0.096,-3.4e-4 c -0.2373,-0.76884 -0.5711,-1.39401 -1.0004,-2.16352 l -5.5824,-9.57166 -8.9759,-0.0315 z"
       style="font-style:normal;font-variant:normal;font-weight:bold;font-stretch:normal;font-size:48px;font-family:'GT America Trial';-inkscape-font-specification:'GT America Trial Bold';fill:#000000;fill-opacity:1"
       id="path1110" /><path
       d="m 1187.946,289.79487 -17.1601,12.10309 8.1263,3.33502 9.2525,-6.99485 c 0.8791,-0.62502 1.7059,-1.3753 2.2013,-1.95027 l 0.089,0.0365 c -0.025,0.81984 0.049,1.52468 0.2775,2.86378 l 1.9013,11.67615 8.4371,3.46258 -3.9817,-20.26082 16.1659,-11.57715 -8.1263,-3.33502 -8.9553,6.64987 c -0.6912,0.54648 -1.239,0.99619 -1.7526,1.61556 l -0.089,-0.0365 c 0.07,-0.80161 0,-1.50646 -0.1124,-2.38097 l -1.5689,-10.96899 -8.3039,-3.40791 z"
       style="font-style:normal;font-variant:normal;font-weight:bold;font-stretch:normal;font-size:48px;font-family:'GT America Trial';-inkscape-font-specification:'GT America Trial Bold';fill:#000000;fill-opacity:1"
       id="path1112" /><path
       d="m 1223.5193,316.29547 -20.9876,-0.68652 4.4737,7.55937 11.5991,-0.004 c 1.0782,0.0312 2.1901,-0.0691 2.932,-0.22925 l 0.049,0.0826 c -0.5143,0.639 -0.8802,1.24596 -1.5049,2.45231 l -5.521,10.46257 4.6449,7.84852 9.0357,-18.56641 19.8774,0.50694 -4.4738,-7.55937 -11.1539,-0.0921 c -0.8809,0.0194 -1.5891,0.048 -2.3722,0.23264 l -0.049,-0.0826 c 0.5387,-0.59769 0.9045,-1.20465 1.3455,-1.96757 l 5.36,-9.69796 -4.5716,-7.7246 z"
       style="font-style:normal;font-variant:normal;font-weight:bold;font-stretch:normal;font-size:48px;font-family:'GT America Trial';-inkscape-font-specification:'GT America Trial Bold';fill:#000000;fill-opacity:1"
       id="path1114" /><path
       d="m 1235.6179,356.26631 -18.0895,-10.66412 0.3021,8.7788 10.1812,5.55711 c 0.9313,0.54429 1.9552,0.98934 2.683,1.20443 v 0.0959 c -0.7576,0.31425 -1.3697,0.67151 -2.4963,1.43071 l -9.861,6.53503 0.3137,9.11461 16.8305,-11.96196 17.2012,9.97427 -0.3021,-8.77881 -9.7445,-5.42805 c -0.7824,-0.40533 -1.4176,-0.71967 -2.1934,-0.93311 v -0.0959 c 0.7593,-0.26628 1.3714,-0.62354 2.1241,-1.0817 l 9.3532,-5.94122 -0.3087,-8.97068 z"
       style="font-style:normal;font-variant:normal;font-weight:bold;font-stretch:normal;font-size:48px;font-family:'GT America Trial';-inkscape-font-specification:'GT America Trial Bold';fill:#000000;fill-opacity:1"
       id="path1116" /><path
       d="m 1235.8027,390.43502 -17.712,-11.28 v 8.784 l 9.984,5.904 c 0.912,0.576 1.92,1.056 2.64,1.296 v 0.096 c -0.768,0.288 -1.392,0.624 -2.544,1.344 l -10.08,6.192 v 9.12 l 17.232,-11.376 16.848,10.56 v -8.784 l -9.552,-5.76 c -0.768,-0.432 -1.392,-0.768 -2.16,-1.008 v -0.096 c 0.768,-0.24 1.392,-0.576 2.16,-1.008 l 9.552,-5.616 v -8.976 z"
       style="font-style:normal;font-variant:normal;font-weight:bold;font-stretch:normal;font-size:48px;font-family:'GT America Trial';-inkscape-font-specification:'GT America Trial Bold';fill:#000000;fill-opacity:1"
       id="path1118" /><path
       d="m 1235.8027,423.99752 -17.712,-11.28 v 8.784 l 9.984,5.904 c 0.912,0.576 1.92,1.056 2.64,1.296 v 0.096 c -0.768,0.288 -1.392,0.624 -2.544,1.344 l -10.08,6.192 v 9.12 l 17.232,-11.376 16.848,10.56 v -8.784 l -9.552,-5.76 c -0.768,-0.432 -1.392,-0.768 -2.16,-1.008 v -0.096 c 0.768,-0.24 1.392,-0.576 2.16,-1.008 l 9.552,-5.616 v -8.976 z"
       style="font-style:normal;font-variant:normal;font-weight:bold;font-stretch:normal;font-size:48px;font-family:'GT America Trial';-inkscape-font-specification:'GT America Trial Bold';fill:#000000;fill-opacity:1"
       id="path1120" /><path
       d="m 1235.8027,457.56002 -17.712,-11.28 v 8.784 l 9.984,5.904 c 0.912,0.576 1.92,1.056 2.64,1.296 v 0.096 c -0.768,0.288 -1.392,0.624 -2.544,1.344 l -10.08,6.192 v 9.12 l 17.232,-11.376 16.848,10.56 v -8.784 l -9.552,-5.76 c -0.768,-0.432 -1.392,-0.768 -2.16,-1.008 v -0.096 c 0.768,-0.24 1.392,-0.576 2.16,-1.008 l 9.552,-5.616 v -8.976 z"
       style="font-style:normal;font-variant:normal;font-weight:bold;font-stretch:normal;font-size:48px;font-family:'GT America Trial';-inkscape-font-specification:'GT America Trial Bold';fill:#000000;fill-opacity:1"
       id="path1122" /><path
       d="m 1236.1136,492.37254 -16.8805,-12.49006 -0.6138,8.76253 9.5471,6.58721 c 0.8695,0.63831 1.8415,1.18757 2.543,1.4773 l -0.01,0.0958 c -0.7863,0.23364 -1.4322,0.52521 -2.6317,1.16296 l -10.4881,5.47252 -0.6372,9.09771 17.9848,-10.14411 16.0689,11.71145 0.6138,-8.76253 -9.1262,-6.41337 c -0.7359,-0.48461 -1.3349,-0.86339 -2.0843,-1.15647 l 0.01,-0.0958 c 0.7829,-0.18575 1.4289,-0.47733 2.2252,-0.85461 l 9.9211,-4.93482 0.6272,-8.95406 z"
       style="font-style:normal;font-variant:normal;font-weight:bold;font-stretch:normal;font-size:48px;font-family:'GT America Trial';-inkscape-font-specification:'GT America Trial Bold';fill:#000000;fill-opacity:1"
       id="path1124" /><path
       d="m 1225.6262,533.93442 -7.7706,-19.50825 -5.137,7.12525 4.6458,10.62795 c 0.403,1.00059 0.9399,1.97945 1.3836,2.5952 l -0.056,0.0779 c -0.7914,-0.21553 -1.494,-0.30791 -2.8496,-0.39758 l -11.7977,-0.87227 -5.3335,7.3978 20.6308,0.84984 7.4908,18.41893 5.1371,-7.12525 -4.3797,-10.2585 c -0.3703,-0.79957 -0.68,-1.43705 -1.1626,-2.08087 l 0.056,-0.0779 c 0.7634,0.25446 1.466,0.34684 2.3416,0.44556 l 11.0326,1.03072 5.2494,-7.281 z"
       style="font-style:normal;font-variant:normal;font-weight:bold;font-stretch:normal;font-size:48px;font-family:'GT America Trial';-inkscape-font-specification:'GT America Trial Bold';fill:#000000;fill-opacity:1"
       id="path1126" /><path
       d="m 1191.5784,562.35098 5.5473,-20.25291 -8.3924,2.59361 -2.6928,11.28211 c -0.281,1.04142 -0.442,2.1462 -0.4587,2.90496 l -0.092,0.0284 c -0.502,-0.64872 -1.0072,-1.14569 -2.0353,-2.03374 l -8.8922,-7.80231 -8.7134,2.69282 15.9568,13.10478 -5.1145,19.21484 8.3924,-2.59361 2.6828,-10.82685 c 0.1859,-0.86132 0.3227,-1.5567 0.3253,-2.36133 l 0.092,-0.0283 c 0.456,0.66289 0.9613,1.15986 1.6008,1.76607 l 8.186,7.46792 8.5758,-2.6503 z"
       style="font-style:normal;font-variant:normal;font-weight:bold;font-stretch:normal;font-size:48px;font-family:'GT America Trial';-inkscape-font-specification:'GT America Trial Bold';fill:#000000;fill-opacity:1"
       id="path1128" /><path
       d="m 1153.2416,566.94314 11.28,-17.712 h -8.784 l -5.904,9.984 c -0.576,0.912 -1.056,1.92 -1.296,2.64 h -0.096 c -0.288,-0.768 -0.624,-1.392 -1.344,-2.544 l -6.192,-10.08 h -9.12 l 11.376,17.232 -10.56,16.848 h 8.784 l 5.76,-9.552 c 0.432,-0.768 0.768,-1.392 1.008,-2.16 h 0.096 c 0.24,0.768 0.576,1.392 1.008,2.16 l 5.616,9.552 h 8.976 z"
       style="font-style:normal;font-variant:normal;font-weight:bold;font-stretch:normal;font-size:48px;font-family:'GT America Trial';-inkscape-font-specification:'GT America Trial Bold';fill:#000000;fill-opacity:1"
       id="path1130" /><path
       d="m 1119.6791,566.94314 11.28,-17.712 h -8.784 l -5.904,9.984 c -0.576,0.912 -1.056,1.92 -1.296,2.64 h -0.096 c -0.288,-0.768 -0.624,-1.392 -1.344,-2.544 l -6.192,-10.08 h -9.12 l 11.376,17.232 -10.56,16.848 h 8.784 l 5.76,-9.552 c 0.432,-0.768 0.768,-1.392 1.008,-2.16 h 0.096 c 0.24,0.768 0.576,1.392 1.008,2.16 l 5.616,9.552 h 8.976 z"
       style="font-style:normal;font-variant:normal;font-weight:bold;font-stretch:normal;font-size:48px;font-family:'GT America Trial';-inkscape-font-specification:'GT America Trial Bold';fill:#000000;fill-opacity:1"
       id="path1132" /><path
       d="m 1086.1166,566.94314 11.28,-17.712 h -8.784 l -5.904,9.984 c -0.576,0.912 -1.056,1.92 -1.296,2.64 h -0.096 c -0.288,-0.768 -0.624,-1.392 -1.344,-2.544 l -6.192,-10.08 h -9.12 l 11.376,17.232 -10.56,16.848 h 8.784 l 5.76,-9.552 c 0.432,-0.768 0.768,-1.392 1.008,-2.16 h 0.096 c 0.24,0.768 0.576,1.392 1.008,2.16 l 5.616,9.552 h 8.976 z"
       style="font-style:normal;font-variant:normal;font-weight:bold;font-stretch:normal;font-size:48px;font-family:'GT America Trial';-inkscape-font-specification:'GT America Trial Bold';fill:#000000;fill-opacity:1"
       id="path1134" /><path
       d="m 584.03312,566.94314 11.28,-17.712 h -8.784 l -5.904,9.984 c -0.576,0.912 -1.056,1.92 -1.296,2.64 h -0.096 c -0.288,-0.768 -0.624,-1.392 -1.344,-2.544 l -6.192,-10.08 h -9.12 l 11.376,17.232 -10.56001,16.848 h 8.784 l 5.76001,-9.552 c 0.432,-0.768 0.768,-1.392 1.008,-2.16 h 0.096 c 0.24,0.768 0.576,1.392 1.008,2.16 l 5.61599,9.552 h 8.976 z"
       style="font-style:normal;font-variant:normal;font-weight:bold;font-stretch:normal;font-size:48px;font-family:'GT America Trial';-inkscape-font-specification:'GT America Trial Bold';fill:#000000;fill-opacity:1"
       id="path1136" /><path
       d="m 550.47062,566.94314 11.28,-17.712 h -8.784 l -5.904,9.984 c -0.576,0.912 -1.056,1.92 -1.296,2.64 h -0.096 c -0.288,-0.768 -0.624,-1.392 -1.344,-2.544 l -6.192,-10.08 h -9.12 l 11.376,17.232 -10.56001,16.848 h 8.784 l 5.76001,-9.552 c 0.432,-0.768 0.768,-1.392 1.008,-2.16 h 0.096 c 0.24,0.768 0.576,1.392 1.008,2.16 l 5.61599,9.552 h 8.976 z"
       style="font-style:normal;font-variant:normal;font-weight:bold;font-stretch:normal;font-size:48px;font-family:'GT America Trial';-inkscape-font-specification:'GT America Trial Bold';fill:#000000;fill-opacity:1"
       id="path1138" /><path
       d="m 516.90812,566.94314 11.28,-17.712 h -8.784 l -5.904,9.984 c -0.576,0.912 -1.056,1.92 -1.296,2.64 h -0.096 c -0.288,-0.768 -0.624,-1.392 -1.344,-2.544 l -6.192,-10.08 h -9.12 l 11.376,17.232 -10.56001,16.848 h 8.784 l 5.76001,-9.552 c 0.432,-0.768 0.768,-1.392 1.008,-2.16 h 0.096 c 0.24,0.768 0.576,1.392 1.008,2.16 l 5.61599,9.552 h 8.976 z"
       style="font-style:normal;font-variant:normal;font-weight:bold;font-stretch:normal;font-size:48px;font-family:'GT America Trial';-inkscape-font-specification:'GT America Trial Bold';fill:#000000;fill-opacity:1"
       id="path1140" /><path
       d="m 483.34562,566.94314 11.28,-17.712 h -8.784 l -5.904,9.984 c -0.576,0.912 -1.056,1.92 -1.296,2.64 h -0.096 c -0.288,-0.768 -0.624,-1.392 -1.344,-2.544 l -6.192,-10.08 h -9.12 l 11.376,17.232 -10.56001,16.848 h 8.784 l 5.76001,-9.552 c 0.432,-0.768 0.768,-1.392 1.008,-2.16 h 0.096 c 0.24,0.768 0.576,1.392 1.008,2.16 l 5.61599,9.552 h 8.976 z"
       style="font-style:normal;font-variant:normal;font-weight:bold;font-stretch:normal;font-size:48px;font-family:'GT America Trial';-inkscape-font-specification:'GT America Trial Bold';fill:#000000;fill-opacity:1"
       id="path1142" /><path
       d="m 449.78312,566.94314 11.28,-17.712 h -8.784 l -5.904,9.984 c -0.576,0.912 -1.056,1.92 -1.296,2.64 h -0.096 c -0.288,-0.768 -0.624,-1.392 -1.344,-2.544 l -6.192,-10.08 h -9.12 l 11.376,17.232 -10.56001,16.848 h 8.784 l 5.76001,-9.552 c 0.432,-0.768 0.768,-1.392 1.008,-2.16 h 0.096 c 0.24,0.768 0.576,1.392 1.008,2.16 l 5.61599,9.552 h 8.976 z"
       style="font-style:normal;font-variant:normal;font-weight:bold;font-stretch:normal;font-size:48px;font-family:'GT America Trial';-inkscape-font-specification:'GT America Trial Bold';fill:#000000;fill-opacity:1"
       id="path1144" /><path
       d="m 416.22062,566.94314 11.28,-17.712 h -8.784 l -5.904,9.984 c -0.576,0.912 -1.056,1.92 -1.296,2.64 h -0.096 c -0.288,-0.768 -0.624,-1.392 -1.344,-2.544 l -6.192,-10.08 h -9.12 l 11.376,17.232 -10.56001,16.848 h 8.784 l 5.76001,-9.552 c 0.432,-0.768 0.768,-1.392 1.008,-2.16 h 0.096 c 0.24,0.768 0.576,1.392 1.008,2.16 l 5.61599,9.552 h 8.976 z"
       style="font-style:normal;font-variant:normal;font-weight:bold;font-stretch:normal;font-size:48px;font-family:'GT America Trial';-inkscape-font-specification:'GT America Trial Bold';fill:#000000;fill-opacity:1"
       id="path1146" /><path
       d="m 382.65812,566.94314 11.28,-17.712 h -8.784 l -5.904,9.984 c -0.576,0.912 -1.056,1.92 -1.296,2.64 h -0.096 c -0.288,-0.768 -0.624,-1.392 -1.344,-2.544 l -6.192,-10.08 h -9.12 l 11.376,17.232 -10.56001,16.848 h 8.784 l 5.76001,-9.552 c 0.432,-0.768 0.768,-1.392 1.008,-2.16 h 0.096 c 0.24,0.768 0.576,1.392 1.008,2.16 l 5.61599,9.552 h 8.976 z"
       style="font-style:normal;font-variant:normal;font-weight:bold;font-stretch:normal;font-size:48px;font-family:'GT America Trial';-inkscape-font-specification:'GT America Trial Bold';fill:#000000;fill-opacity:1"
       id="path1148" /><path
       d="m 349.09562,566.94314 11.28,-17.712 h -8.784 l -5.904,9.984 c -0.576,0.912 -1.056,1.92 -1.296,2.64 h -0.096 c -0.288,-0.768 -0.624,-1.392 -1.344,-2.544 l -6.192,-10.08 h -9.12 l 11.376,17.232 -10.56001,16.848 h 8.784 l 5.76001,-9.552 c 0.432,-0.768 0.768,-1.392 1.008,-2.16 h 0.096 c 0.24,0.768 0.576,1.392 1.008,2.16 l 5.61599,9.552 h 8.976 z"
       style="font-style:normal;font-variant:normal;font-weight:bold;font-stretch:normal;font-size:48px;font-family:'GT America Trial';-inkscape-font-specification:'GT America Trial Bold';fill:#000000;fill-opacity:1"
       id="path1150" /><path
       d="m 315.53312,566.94314 11.28,-17.712 h -8.784 l -5.904,9.984 c -0.576,0.912 -1.056,1.92 -1.296,2.64 h -0.096 c -0.288,-0.768 -0.624,-1.392 -1.344,-2.544 l -6.192,-10.08 h -9.12 l 11.376,17.232 -10.56001,16.848 h 8.784 l 5.76001,-9.552 c 0.432,-0.768 0.768,-1.392 1.008,-2.16 h 0.096 c 0.24,0.768 0.576,1.392 1.008,2.16 l 5.61599,9.552 h 8.976 z"
       style="font-style:normal;font-variant:normal;font-weight:bold;font-stretch:normal;font-size:48px;font-family:'GT America Trial';-inkscape-font-specification:'GT America Trial Bold';fill:#000000;fill-opacity:1"
       id="path1152" /><path
       d="m 281.97057,566.94317 11.28005,-17.71197 -8.784,-2e-5 -5.90403,9.98398 c -0.576,0.912 -1.05601,1.92 -1.29601,2.64 h -0.096 c -0.288,-0.76801 -0.62399,-1.39201 -1.34399,-2.54401 l -6.19197,-10.08002 -9.12,-2e-5 11.37595,17.23203 -10.56005,16.84797 8.784,3e-5 5.76003,-9.55199 c 0.432,-0.768 0.768,-1.392 1.00801,-2.16 h 0.096 c 0.23999,0.76801 0.57599,1.39201 1.00799,2.16001 l 5.61597,9.55201 8.976,3e-5 z"
       style="font-style:normal;font-variant:normal;font-weight:bold;font-stretch:normal;font-size:48px;font-family:'GT America Trial';-inkscape-font-specification:'GT America Trial Bold';fill:#000000;fill-opacity:1"
       id="path1154" /><path
       d="m 242.81101,564.9533 16.31984,-13.21424 -8.32952,-2.78887 -8.76839,7.59294 c -0.83576,0.68193 -1.61096,1.48538 -2.06713,2.09193 l -0.091,-0.0305 c -0.0293,-0.8197 -0.14976,-1.51809 -0.46675,-2.83909 l -2.67128,-11.52438 -8.64813,-2.89556 5.31633,19.95224 -15.36277,12.62354 8.32951,2.78887 8.49469,-7.229 c 0.65348,-0.59111 1.17022,-1.07615 1.64164,-1.72821 l 0.091,0.0305 c -0.0163,0.80446 0.10424,1.50285 0.27006,2.36827 l 2.29271,10.84083 8.51159,2.84984 z"
       style="font-style:normal;font-variant:normal;font-weight:bold;font-stretch:normal;font-size:48px;font-family:'GT America Trial';-inkscape-font-specification:'GT America Trial Bold';fill:#000000;fill-opacity:1"
       id="path1156" /><path
       d="m 205.55974,540.87404 20.9869,-0.70944 -4.96613,-7.24542 -11.57313,0.77469 c -1.0779,0.0405 -2.18072,0.21446 -2.91029,0.42355 l -0.0543,-0.0792 c 0.47066,-0.67175 0.7954,-1.30169 1.33856,-2.54687 l 4.8137,-10.80627 -5.15609,-7.52257 -7.78215,19.12572 -19.86718,0.81486 4.96613,7.24542 11.13539,-0.64923 c 0.87771,-0.0779 1.58238,-0.1535 2.35154,-0.38974 l 0.0543,0.0792 c -0.4978,0.63216 -0.82254,1.26209 -1.21178,2.05262 l -4.70384,10.03265 5.07468,7.4038 z"
       style="font-style:normal;font-variant:normal;font-weight:bold;font-stretch:normal;font-size:48px;font-family:'GT America Trial';-inkscape-font-specification:'GT America Trial Bold';fill:#000000;fill-opacity:1"
       id="path1158" /><path
       d="m 190.83673,501.06883 18.34985,10.20962 -0.52099,-8.76854 -10.3166,-5.30144 c -0.94456,-0.52089 -1.97925,-0.94026 -2.71222,-1.13714 l -0.006,-0.0958 c 0.74956,-0.33304 1.35254,-0.70546 2.4598,-1.49252 l 9.695,-6.77896 -0.54092,-9.10394 -16.52693,12.37802 -17.44467,-9.54213 0.52099,8.76854 9.87682,5.18332 c 0.79227,0.38569 1.4351,0.68408 2.21598,0.87811 l 0.006,0.0958 c -0.75241,0.28513 -1.35538,0.65755 -2.09641,1.13434 l -9.20209,6.17265 0.53238,8.9602 z"
       style="font-style:normal;font-variant:normal;font-weight:bold;font-stretch:normal;font-size:48px;font-family:'GT America Trial';-inkscape-font-specification:'GT America Trial Bold';fill:#000000;fill-opacity:1"
       id="path1160" /><path
       d="m 190.50489,466.46473 17.712,11.28 v -8.784 l -9.984,-5.904 c -0.912,-0.576 -1.92,-1.056 -2.64,-1.296 v -0.096 c 0.768,-0.288 1.392,-0.624 2.544,-1.344 l 10.08,-6.192 v -9.12 l -17.232,11.376 -16.848,-10.56 v 8.784 l 9.552,5.76 c 0.768,0.432 1.392,0.768 2.16,1.008 v 0.096 c -0.768,0.24 -1.392,0.576 -2.16,1.008 l -9.552,5.616 v 8.976 z"
       style="font-style:normal;font-variant:normal;font-weight:bold;font-stretch:normal;font-size:48px;font-family:'GT America Trial';-inkscape-font-specification:'GT America Trial Bold';fill:#000000;fill-opacity:1"
       id="path1162" /><path
       d="m 190.50489,432.90223 17.712,11.28 v -8.784 l -9.984,-5.904 c -0.912,-0.576 -1.92,-1.056 -2.64,-1.296 v -0.096 c 0.768,-0.288 1.392,-0.624 2.544,-1.344 l 10.08,-6.192 v -9.12 l -17.232,11.376 -16.848,-10.56 v 8.784 l 9.552,5.76 c 0.768,0.432 1.392,0.768 2.16,1.008 v 0.096 c -0.768,0.24 -1.392,0.576 -2.16,1.008 l -9.552,5.616 v 8.976 z"
       style="font-style:normal;font-variant:normal;font-weight:bold;font-stretch:normal;font-size:48px;font-family:'GT America Trial';-inkscape-font-specification:'GT America Trial Bold';fill:#000000;fill-opacity:1"
       id="path1164" /><path
       d="m 190.50489,399.33973 17.712,11.28 v -8.784 l -9.984,-5.904 c -0.912,-0.576 -1.92,-1.056 -2.64,-1.296 v -0.096 c 0.768,-0.288 1.392,-0.624 2.544,-1.344 l 10.08,-6.192 v -9.12 l -17.232,11.376 -16.848,-10.56 v 8.784 l 9.552,5.76 c 0.768,0.432 1.392,0.768 2.16,1.008 v 0.096 c -0.768,0.24 -1.392,0.576 -2.16,1.008 l -9.552,5.616 v 8.976 z"
       style="font-style:normal;font-variant:normal;font-weight:bold;font-stretch:normal;font-size:48px;font-family:'GT America Trial';-inkscape-font-specification:'GT America Trial Bold';fill:#000000;fill-opacity:1"
       id="path1166" /><path
       d="m 190.30531,365.01929 17.21621,12.02313 0.3736,-8.77605 -9.72385,-6.3233 c -0.88667,-0.61427 -1.87335,-1.13671 -2.58249,-1.40712 l 0.004,-0.0959 c 0.77955,-0.25508 1.41728,-0.56423 2.59886,-1.23458 l 10.33424,-5.75767 0.3879,-9.11175 -17.70026,10.63279 -16.38361,-11.26704 -0.37361,8.77605 9.29837,6.16106 c 0.74893,0.46428 1.35808,0.82651 2.11517,1.09896 l -0.004,0.0959 c -0.77751,0.20712 -1.41524,0.51628 -2.20092,0.91522 l -9.78222,5.20465 -0.38177,8.96787 z"
       style="font-style:normal;font-variant:normal;font-weight:bold;font-stretch:normal;font-size:48px;font-family:'GT America Trial';-inkscape-font-specification:'GT America Trial Bold';fill:#000000;fill-opacity:1"
       id="path1168" /><path
       d="m 198.38186,323.54371 9.04934,18.94896 4.65237,-7.45078 -5.34163,-10.29584 c -0.46851,-0.97161 -1.06929,-1.91264 -1.55289,-2.49755 l 0.0508,-0.0814 c 0.80398,0.16248 1.51122,0.20797 2.86972,0.2074 l 11.82961,0.0866 4.83034,-7.73577 -20.64176,0.52257 -8.69781,-17.88062 -4.65238,7.45077 5.05147,9.9449 c 0.42263,0.77319 0.77396,1.38869 1.29828,1.99903 l -0.0508,0.0814 c -0.77855,-0.20319 -1.4858,-0.24869 -2.36604,-0.28902 l -11.07668,-0.29553 -4.75407,7.61364 z"
       style="font-style:normal;font-variant:normal;font-weight:bold;font-stretch:normal;font-size:48px;font-family:'GT America Trial';-inkscape-font-specification:'GT America Trial Bold';fill:#000000;fill-opacity:1"
       id="path1170" /><path
       d="m 230.47598,292.92234 -4.20072,20.57443 8.20322,-3.14099 1.94355,-11.43504 c 0.2118,-1.05767 0.29963,-2.17066 0.2663,-2.92887 l 0.0897,-0.0343 c 0.54358,0.61424 1.0805,1.07683 2.16483,1.8952 l 9.38701,7.19939 8.51701,-3.26114 -16.78568,-12.02481 3.83726,-19.5101 -8.20322,3.14099 -1.96354,10.98011 c -0.12882,0.8717 -0.21947,1.57459 -0.16898,2.37763 l -0.0897,0.0343 c -0.49876,-0.63141 -1.03567,-1.094 -1.71373,-1.65675 l -8.6603,-6.91226 -8.38252,3.20964 z"
       style="font-style:normal;font-variant:normal;font-weight:bold;font-stretch:normal;font-size:48px;font-family:'GT America Trial';-inkscape-font-specification:'GT America Trial Bold';fill:#000000;fill-opacity:1"
       id="path1172" /></g><path
     d="m 394.94905,487.22797 c -2.304,-16.512 -1.536,-77.184 -0.384,-96.96 0.384,-7.104 3.264,-8.256 9.984,-8.256 1.344,0 3.072,0 4.416,0.192 -0.192,-4.992 -0.192,-10.56 0.192,-15.552 -5.952,0.768 -45.888,0.384 -53.184,0 0.384,4.992 0.384,10.368 0,15.552 3.072,-0.192 5.568,-0.192 12.864,-0.192 6.336,0 9.6,1.92 9.792,9.6 0,9.408 -0.192,22.272 -0.384,35.904 0.192,8.832 0.192,27.648 1.728,40.896 l -1.152,0.192 c -4.8,-10.56 -12.288,-23.808 -20.544,-38.208 -15.36,-25.92 -30.144,-54.912 -34.176,-63.744 -4.032,0.576 -34.752,0.384 -40.128,0 0.384,4.8 0.384,10.368 0,15.36 1.728,0 4.032,-0.192 7.488,-0.192 6.144,0 8.448,2.688 8.448,9.6 0.576,17.856 0.384,52.608 -0.576,71.808 -0.384,6.72 -2.112,8.448 -7.488,8.448 -2.688,0 -5.568,-0.192 -7.68,-0.192 0.192,5.184 0.192,10.56 0,15.744 6.336,-0.384 45.504,-0.576 52.224,0 -0.384,-3.456 -0.384,-11.328 0,-15.744 -2.304,0.192 -7.296,0.192 -11.136,0.192 -6.336,0 -9.216,-3.264 -9.408,-9.216 -0.384,-11.52 -0.384,-24.96 -0.384,-39.36 0,-9.024 -0.96,-26.688 -2.496,-39.36 l 1.536,-0.192 c 4.608,9.6 12.096,23.424 20.352,38.016 15.168,26.88 32.256,57.408 36.096,65.664 4.608,-0.384 17.664,-0.384 24,0 z"
     style="font-style:normal;font-variant:normal;font-weight:normal;font-stretch:normal;font-size:192px;line-height:1.25;font-family:'Vulf Mono';-inkscape-font-specification:'Vulf Mono';white-space:pre;shape-inside:url(#rect957);fill:#000000;fill-opacity:1;stroke:none"
     id="path1179"
     transform="matrix(0.76679605,0,0,0.76679605,-127.87727,-194.65837)" /><path
     d="m 427.44205,426.74797 c 0,37.44 18.816,63.168 60.096,63.168 41.28,0 60.096,-25.728 60.096,-62.976 0,-37.44 -18.816,-62.976 -60.096,-62.976 -41.28,0 -60.096,25.536 -60.096,62.784 z m 100.992,0.192 c 0,31.872 -14.976,46.464 -40.896,46.464 -25.92,0 -40.896,-14.592 -40.896,-46.464 0,-31.68 14.976,-46.464 40.896,-46.464 25.92,0 40.896,14.784 40.896,46.464 z"
     style="font-style:normal;font-variant:normal;font-weight:normal;font-stretch:normal;font-size:192px;line-height:1.25;font-family:'Vulf Mono';-inkscape-font-specification:'Vulf Mono';white-space:pre;shape-inside:url(#rect957);fill:#000000;fill-opacity:1;stroke:none"
     id="path1181"
     transform="matrix(0.76679605,0,0,0.76679605,-127.87727,-194.65837)" /><path
     d="m 635.61505,421.75597 c -8.832,0 -18.816,-0.384 -32.256,-1.344 0,-13.44 0,-27.264 0.192,-39.168 12.288,-0.384 24.768,-0.192 32.832,-0.192 18.048,0 29.376,4.608 29.376,19.584 0,13.248 -6.144,21.12 -30.144,21.12 z m 36.672,67.392 c 15.168,0 26.304,-10.176 23.616,-36.096 -4.032,0.384 -8.64,0.384 -13.248,0 1.536,13.44 -1.152,20.928 -9.216,20.928 -7.68,0 -9.792,-5.376 -15.936,-20.352 -3.264,-9.024 -7.872,-15.168 -15.552,-18.816 l 0.192,-0.96 c 28.8,-2.112 41.856,-14.976 41.28,-34.56 0,-24.576 -17.664,-32.832 -43.392,-32.832 -7.104,0 -28.224,0.384 -43.008,0.384 -13.632,0 -29.376,0 -33.6,-0.192 0.384,4.992 0.384,9.984 0,15.36 3.072,-0.192 7.488,-0.192 11.712,-0.192 6.528,0 10.176,2.496 10.368,9.6 0.96,17.856 0.96,52.8 0,71.808 -0.192,6.72 -2.688,8.064 -9.6,8.064 -2.304,0 -7.488,0 -10.56,-0.192 0.384,5.568 0.384,10.752 0,16.128 8.256,-0.576 60.288,-0.768 68.928,0 -0.192,-4.8 -0.384,-11.136 0.192,-15.936 -6.144,0.192 -14.016,0.192 -21.504,0.192 -6.336,0 -8.832,-2.112 -9.024,-9.216 -0.192,-7.104 -0.384,-17.088 -0.384,-28.416 3.84,0.192 8.448,0.576 14.016,0.96 14.784,1.152 17.088,5.76 23.04,23.232 7.68,21.696 12.48,31.104 31.68,31.104 z"
     style="font-style:normal;font-variant:normal;font-weight:normal;font-stretch:normal;font-size:192px;line-height:1.25;font-family:'Vulf Mono';-inkscape-font-specification:'Vulf Mono';white-space:pre;shape-inside:url(#rect957);fill:#000000;fill-opacity:1;stroke:none"
     id="path1183"
     transform="matrix(0.76679605,0,0,0.76679605,-127.87727,-194.65837)" /><path
     d="m 837.06805,487.22797 c -0.384,-3.84 -0.384,-11.904 0,-15.936 -2.304,0.192 -4.992,0.192 -6.72,0.192 -6.72,0 -9.024,-3.648 -9.216,-9.408 -0.768,-19.584 -0.384,-52.8 0.768,-71.616 0.384,-6.336 2.88,-9.024 9.216,-9.024 1.536,0 4.8,0 6.912,0.192 -0.192,-5.184 -0.192,-9.792 0.192,-14.976 -5.184,0.576 -34.752,0.192 -39.744,0 -2.112,9.408 -17.856,45.504 -26.496,63.168 -8.256,-17.472 -22.464,-52.608 -25.152,-63.168 -5.76,0.576 -35.904,0.384 -41.472,0 0.192,4.8 0.384,9.792 0,14.976 h 9.6 c 5.76,0 7.296,2.496 7.488,9.792 0.384,17.664 0.576,52.608 -0.192,71.616 -0.384,6.144 -2.304,8.448 -8.064,8.64 -4.032,0 -6.336,-0.192 -7.872,-0.192 0.192,5.184 0.192,10.56 0,15.744 6.336,-0.384 46.848,-0.576 53.76,0 -0.384,-4.416 -0.384,-11.136 -0.192,-15.744 -2.688,0 -6.72,0.192 -12.672,0.192 -6.528,0 -8.448,-3.264 -8.448,-8.832 -0.576,-10.176 -0.768,-23.232 -0.768,-36.096 0,-12.48 -0.96,-28.992 -1.92,-42.048 l 1.92,-0.384 c 8.064,19.392 24.192,59.52 25.728,65.28 4.992,-0.384 9.792,-0.384 14.208,0 1.152,-4.416 18.624,-45.888 26.88,-65.28 h 1.92 c -0.96,12.864 -1.92,31.104 -2.112,43.392 0,13.056 0,25.728 -0.384,35.136 -0.192,5.376 -2.496,8.64 -8.832,8.64 -3.072,0 -8.448,0.192 -12.48,-0.192 0.384,5.376 0.576,10.752 0.192,15.936 6.144,-0.384 46.848,-0.576 53.952,0 z"
     style="font-style:normal;font-variant:normal;font-weight:normal;font-stretch:normal;font-size:192px;line-height:1.25;font-family:'Vulf Mono';-inkscape-font-specification:'Vulf Mono';white-space:pre;shape-inside:url(#rect957);fill:#000000;fill-opacity:1;stroke:none"
     id="path1185"
     transform="matrix(0.76679605,0,0,0.76679605,-127.87727,-194.65837)" /><path
     d="m 980.15305,487.22797 c -0.192,-3.264 -0.192,-11.904 0,-15.36 -1.728,0.192 -3.456,0.192 -4.608,0.192 -6.144,0 -9.024,-2.688 -11.328,-8.832 -7.68,-19.008 -28.416,-71.808 -36.096,-96.576 -10.176,0.96 -44.544,0.384 -56.64,0 0.192,5.184 0.192,10.944 0,15.744 3.456,-0.192 6.912,-0.384 14.592,-0.384 6.528,0 8.064,3.84 5.952,9.792 -6.912,19.392 -22.272,58.752 -27.84,72.192 -2.88,6.336 -6.528,7.872 -10.944,8.064 -2.496,0 -4.416,0 -5.76,-0.192 0.192,4.416 0.192,11.328 0,15.36 6.912,-0.576 48.96,-0.384 56.064,0 -0.192,-5.184 -0.192,-10.368 0,-15.36 -4.032,0.192 -10.56,0.192 -13.44,0.192 -6.336,0 -7.68,-2.688 -7.68,-6.528 0,-2.88 1.344,-5.376 2.496,-9.216 0.96,-2.688 2.112,-6.144 3.456,-9.792 12.288,-0.384 36.288,-0.384 49.92,0 1.344,3.264 2.304,6.336 3.264,9.216 1.536,4.224 2.88,7.872 2.88,10.368 0,3.456 -2.112,5.952 -6.336,5.952 -7.296,0 -10.56,0.192 -15.168,-0.192 0.384,5.376 0.192,10.176 0,15.36 8.256,-0.384 49.344,-0.576 57.216,0 z m -77.952,-77.376 c 4.032,-10.752 8.064,-20.928 10.944,-29.376 h 1.536 c 2.688,8.064 6.336,18.432 10.368,29.184 3.072,8.256 6.144,16.704 9.024,24.576 -12.48,0 -29.76,0 -41.088,0 2.88,-7.872 6.144,-16.32 9.216,-24.384 z"
     style="font-style:normal;font-variant:normal;font-weight:normal;font-stretch:normal;font-size:192px;line-height:1.25;font-family:'Vulf Mono';-inkscape-font-specification:'Vulf Mono';white-space:pre;shape-inside:url(#rect957);fill:#000000;fill-opacity:1;stroke:none"
     id="path1187"
     transform="matrix(0.76679605,0,0,0.76679605,-127.87727,-194.65837)" /><path
     d="m 1105.574,487.22797 c -2.304,-16.512 -1.536,-77.184 -0.384,-96.96 0.384,-7.104 3.264,-8.256 9.984,-8.256 1.344,0 3.072,0 4.416,0.192 -0.192,-4.992 -0.192,-10.56 0.192,-15.552 -5.952,0.768 -45.888,0.384 -53.184,0 0.384,4.992 0.384,10.368 0,15.552 3.072,-0.192 5.568,-0.192 12.864,-0.192 6.336,0 9.6,1.92 9.792,9.6 0,9.408 -0.192,22.272 -0.384,35.904 0.192,8.832 0.192,27.648 1.728,40.896 l -1.152,0.192 c -4.8,-10.56 -12.288,-23.808 -20.544,-38.208 -15.36,-25.92 -30.144,-54.912 -34.176,-63.744 -4.032,0.576 -34.75195,0.384 -40.12795,0 0.384,4.8 0.384,10.368 0,15.36 1.728,0 4.032,-0.192 7.48795,-0.192 6.144,0 8.448,2.688 8.448,9.6 0.576,17.856 0.384,52.608 -0.576,71.808 -0.384,6.72 -2.112,8.448 -7.488,8.448 -2.68795,0 -5.56795,-0.192 -7.67995,-0.192 0.192,5.184 0.192,10.56 0,15.744 6.33595,-0.384 45.50395,-0.576 52.22395,0 -0.384,-3.456 -0.384,-11.328 0,-15.744 -2.304,0.192 -7.296,0.192 -11.136,0.192 -6.336,0 -9.216,-3.264 -9.408,-9.216 -0.384,-11.52 -0.384,-24.96 -0.384,-39.36 0,-9.024 -0.96,-26.688 -2.496,-39.36 l 1.536,-0.192 c 4.608,9.6 12.096,23.424 20.352,38.016 15.168,26.88 32.256,57.408 36.096,65.664 4.608,-0.384 17.664,-0.384 24,0 z"
     style="font-style:normal;font-variant:normal;font-weight:normal;font-stretch:normal;font-size:192px;line-height:1.25;font-family:'Vulf Mono';-inkscape-font-specification:'Vulf Mono';white-space:pre;shape-inside:url(#rect957);fill:#000000;fill-opacity:1;stroke:none"
     id="path1189"
     transform="matrix(0.76679605,0,0,0.76679605,-127.87727,-194.65837)" /><path
     d="M 78.656767,40.548565 H 741.8739 c 21.09251,0 38.07319,16.980631 38.07319,38.073171 V 181.85582 c 0,21.09254 -16.98068,38.07318 -38.07319,38.07318 H 78.656767 c -21.092539,0 -38.07317,-16.98064 -38.07317,-38.07318 V 78.621736 c 0,-21.09254 16.980631,-38.073171 38.07317,-38.073171 z"
     style="opacity:0.784566;fill:none;fill-opacity:1;stroke:none;stroke-width:0.733284;stroke-linecap:square;stroke-miterlimit:4;stroke-dasharray:none;stroke-opacity:1"
     id="rect999" /><g
     transform="matrix(0.73213454,0,0,0.73213454,-113.35948,-182.1821)"
     aria-label="KANSAS CITY, MISSOURI"
     id="text1018"
     style="font-style:normal;font-weight:normal;font-size:48px;line-height:1.25;font-family:sans-serif;fill:#000000;fill-opacity:1;stroke:none"><path
       d="m 643.92628,568.1944 4.176,15.216 h 7.104 l -6.384,-20.784 6.096,-13.296 h -6.864 l -6.576,15.936 v -15.936 h -6.672 v 34.08 h 6.672 v -9.936 z"
       style="font-style:normal;font-variant:normal;font-weight:bold;font-stretch:ultra-condensed;font-size:48px;font-family:'GT America Trial';-inkscape-font-specification:'GT America Trial Bold Ultra-Condensed';fill:#000000;fill-opacity:1"
       id="path1192" /><path
       d="m 670.24828,575.4424 1.248,7.968 h 6.672 l -6.624,-34.08 h -8.736 l -6.672,34.08 h 6.672 l 1.248,-7.968 z m -0.72,-4.848 h -4.752 l 1.68,-10.752 c 0.24,-1.632 0.48,-3.024 0.624,-4.848 h 0.144 c 0.192,1.824 0.384,3.216 0.624,4.848 z"
       style="font-style:normal;font-variant:normal;font-weight:bold;font-stretch:ultra-condensed;font-size:48px;font-family:'GT America Trial';-inkscape-font-specification:'GT America Trial Bold Ultra-Condensed';fill:#000000;fill-opacity:1"
       id="path1194" /><path
       d="m 681.21253,549.3304 v 34.08 h 5.904 v -16.704 c 0,-2.304 -0.144,-4.416 -0.24,-6.624 h 0.144 c 0.384,1.728 0.816,3.36 1.488,5.376 l 6.24,17.952 h 6.432 v -34.08 h -5.856 v 14.112 c 0,2.544 0.096,5.04 0.24,7.536 h -0.096 c -0.384,-1.68 -0.864,-3.408 -1.392,-5.088 l -5.712,-16.56 z"
       style="font-style:normal;font-variant:normal;font-weight:bold;font-stretch:ultra-condensed;font-size:48px;font-family:'GT America Trial';-inkscape-font-specification:'GT America Trial Bold Ultra-Condensed';fill:#000000;fill-opacity:1"
       id="path1196" /><path
       d="m 713.97628,584.2264 c 6.288,0 9.552,-3.408 9.552,-8.304 v -2.592 c 0,-3.6 -0.96,-6 -4.8,-8.352 l -4.896,-2.976 c -1.584,-1.008 -2.448,-2.256 -2.448,-4.032 v -1.536 c 0,-1.632 0.96,-2.88 2.64,-2.88 2.016,0 2.832,1.488 2.832,3.792 v 3.648 l 6.624,-1.248 v -2.496 c 0,-6.432 -3.648,-8.736 -9.456,-8.736 -5.232,0 -9.36,2.736 -9.36,8.304 v 1.776 c 0,3.6 1.2,6.144 4.704,8.256 l 4.848,2.976 c 2.16,1.392 2.496,2.448 2.496,4.56 v 1.392 c 0,1.872 -0.768,3.312 -2.688,3.312 -1.968,0 -2.88,-1.584 -2.88,-4.32 v -3.888 l -6.768,1.296 v 2.736 c 0,5.712 3.456,9.312 9.6,9.312 z"
       style="font-style:normal;font-variant:normal;font-weight:bold;font-stretch:ultra-condensed;font-size:48px;font-family:'GT America Trial';-inkscape-font-specification:'GT America Trial Bold Ultra-Condensed';fill:#000000;fill-opacity:1"
       id="path1198" /><path
       d="m 738.87328,575.4424 1.248,7.968 h 6.672 l -6.624,-34.08 h -8.736 l -6.672,34.08 h 6.672 l 1.248,-7.968 z m -0.72,-4.848 h -4.752 l 1.68,-10.752 c 0.24,-1.632 0.48,-3.024 0.624,-4.848 h 0.144 c 0.192,1.824 0.384,3.216 0.624,4.848 z"
       style="font-style:normal;font-variant:normal;font-weight:bold;font-stretch:ultra-condensed;font-size:48px;font-family:'GT America Trial';-inkscape-font-specification:'GT America Trial Bold Ultra-Condensed';fill:#000000;fill-opacity:1"
       id="path1200" /><path
       d="m 757.75753,584.2264 c 6.288,0 9.552,-3.408 9.552,-8.304 v -2.592 c 0,-3.6 -0.96,-6 -4.8,-8.352 l -4.896,-2.976 c -1.584,-1.008 -2.448,-2.256 -2.448,-4.032 v -1.536 c 0,-1.632 0.96,-2.88 2.64,-2.88 2.016,0 2.832,1.488 2.832,3.792 v 3.648 l 6.624,-1.248 v -2.496 c 0,-6.432 -3.648,-8.736 -9.456,-8.736 -5.232,0 -9.36,2.736 -9.36,8.304 v 1.776 c 0,3.6 1.2,6.144 4.704,8.256 l 4.848,2.976 c 2.16,1.392 2.496,2.448 2.496,4.56 v 1.392 c 0,1.872 -0.768,3.312 -2.688,3.312 -1.968,0 -2.88,-1.584 -2.88,-4.32 v -3.888 l -6.768,1.296 v 2.736 c 0,5.712 3.456,9.312 9.6,9.312 z"
       style="font-style:normal;font-variant:normal;font-weight:bold;font-stretch:ultra-condensed;font-size:48px;font-family:'GT America Trial';-inkscape-font-specification:'GT America Trial Bold Ultra-Condensed';fill:#000000;fill-opacity:1"
       id="path1202" /><path
       d="m 787.54903,584.2264 c 6.144,0 9.84,-3.312 9.84,-9.552 v -3.696 l -6.816,-1.392 v 5.088 c 0,2.784 -1.056,4.272 -3.024,4.272 -2.064,0 -3.168,-1.728 -3.168,-4.992 v -15.408 c 0,-3.312 1.104,-4.8 3.168,-4.8 2.016,0 2.976,1.44 2.976,4.272 v 4.56 l 6.864,-1.296 v -3.456 c 0,-6.24 -3.504,-9.312 -9.696,-9.312 -6.528,0 -10.176,3.648 -10.176,10.608 v 14.448 c 0,7.104 3.504,10.656 10.032,10.656 z"
       style="font-style:normal;font-variant:normal;font-weight:bold;font-stretch:ultra-condensed;font-size:48px;font-family:'GT America Trial';-inkscape-font-specification:'GT America Trial Bold Ultra-Condensed';fill:#000000;fill-opacity:1"
       id="path1204" /><path
       d="m 801.21253,583.4104 h 6.672 v -34.08 h -6.672 z"
       style="font-style:normal;font-variant:normal;font-weight:bold;font-stretch:ultra-condensed;font-size:48px;font-family:'GT America Trial';-inkscape-font-specification:'GT America Trial Bold Ultra-Condensed';fill:#000000;fill-opacity:1"
       id="path1206" /><path
       d="m 829.83178,554.9944 v -5.664 h -19.584 v 5.664 h 6.48 v 28.416 h 6.624 v -28.416 z"
       style="font-style:normal;font-variant:normal;font-weight:bold;font-stretch:ultra-condensed;font-size:48px;font-family:'GT America Trial';-inkscape-font-specification:'GT America Trial Bold Ultra-Condensed';fill:#000000;fill-opacity:1"
       id="path1208" /><path
       d="m 837.09178,571.1704 v 12.24 h 6.672 v -12.24 l 7.152,-21.84 h -6.96 l -2.784,11.376 c -0.336,1.536 -0.48,2.832 -0.672,4.512 h -0.096 c -0.192,-1.68 -0.336,-2.976 -0.72,-4.512 l -2.88,-11.376 h -6.96 z"
       style="font-style:normal;font-variant:normal;font-weight:bold;font-stretch:ultra-condensed;font-size:48px;font-family:'GT America Trial';-inkscape-font-specification:'GT America Trial Bold Ultra-Condensed';fill:#000000;fill-opacity:1"
       id="path1210" /><path
       d="m 853.09528,587.6344 1.632,3.264 c 3.696,-1.296 5.184,-3.888 5.184,-8.016 v -7.248 h -7.2 v 7.776 h 2.928 v 0.192 c 0,2.064 -0.432,3.12 -2.544,4.032 z"
       style="font-style:normal;font-variant:normal;font-weight:bold;font-stretch:ultra-condensed;font-size:48px;font-family:'GT America Trial';-inkscape-font-specification:'GT America Trial Bold Ultra-Condensed';fill:#000000;fill-opacity:1"
       id="path1212" /><path
       d="m 872.18128,549.3304 v 34.08 h 5.664 v -17.136 c 0,-2.736 0,-6.528 -0.144,-9.264 h 0.24 c 0.048,1.008 0.336,2.88 0.624,5.04 l 3.648,21.36 h 4.8 l 3.6,-21.36 c 0.336,-2.16 0.48,-3.408 0.672,-5.04 h 0.192 c -0.144,2.736 -0.144,6.528 -0.144,9.264 v 17.136 h 5.76 v -34.08 h -8.976 l -2.832,17.712 c -0.24,1.824 -0.528,3.696 -0.528,4.992 h -0.192 c -0.048,-1.296 -0.288,-3.168 -0.576,-4.992 l -2.88,-17.712 z"
       style="font-style:normal;font-variant:normal;font-weight:bold;font-stretch:ultra-condensed;font-size:48px;font-family:'GT America Trial';-inkscape-font-specification:'GT America Trial Bold Ultra-Condensed';fill:#000000;fill-opacity:1"
       id="path1214" /><path
       d="m 901.99378,583.4104 h 6.672 v -34.08 h -6.672 z"
       style="font-style:normal;font-variant:normal;font-weight:bold;font-stretch:ultra-condensed;font-size:48px;font-family:'GT America Trial';-inkscape-font-specification:'GT America Trial Bold Ultra-Condensed';fill:#000000;fill-opacity:1"
       id="path1216" /><path
       d="m 921.44503,584.2264 c 6.288,0 9.552,-3.408 9.552,-8.304 v -2.592 c 0,-3.6 -0.96,-6 -4.8,-8.352 l -4.896,-2.976 c -1.584,-1.008 -2.448,-2.256 -2.448,-4.032 v -1.536 c 0,-1.632 0.96,-2.88 2.64,-2.88 2.016,0 2.832,1.488 2.832,3.792 v 3.648 l 6.624,-1.248 v -2.496 c 0,-6.432 -3.648,-8.736 -9.456,-8.736 -5.232,0 -9.36,2.736 -9.36,8.304 v 1.776 c 0,3.6 1.2,6.144 4.704,8.256 l 4.848,2.976 c 2.16,1.392 2.496,2.448 2.496,4.56 v 1.392 c 0,1.872 -0.768,3.312 -2.688,3.312 -1.968,0 -2.88,-1.584 -2.88,-4.32 v -3.888 l -6.768,1.296 v 2.736 c 0,5.712 3.456,9.312 9.6,9.312 z"
       style="font-style:normal;font-variant:normal;font-weight:bold;font-stretch:ultra-condensed;font-size:48px;font-family:'GT America Trial';-inkscape-font-specification:'GT America Trial Bold Ultra-Condensed';fill:#000000;fill-opacity:1"
       id="path1218" /><path
       d="m 942.07003,584.2264 c 6.288,0 9.552,-3.408 9.552,-8.304 v -2.592 c 0,-3.6 -0.96,-6 -4.8,-8.352 l -4.896,-2.976 c -1.584,-1.008 -2.448,-2.256 -2.448,-4.032 v -1.536 c 0,-1.632 0.96,-2.88 2.64,-2.88 2.016,0 2.832,1.488 2.832,3.792 v 3.648 l 6.624,-1.248 v -2.496 c 0,-6.432 -3.648,-8.736 -9.456,-8.736 -5.232,0 -9.36,2.736 -9.36,8.304 v 1.776 c 0,3.6 1.2,6.144 4.704,8.256 l 4.848,2.976 c 2.16,1.392 2.496,2.448 2.496,4.56 v 1.392 c 0,1.872 -0.768,3.312 -2.688,3.312 -1.968,0 -2.88,-1.584 -2.88,-4.32 v -3.888 l -6.768,1.296 v 2.736 c 0,5.712 3.456,9.312 9.6,9.312 z"
       style="font-style:normal;font-variant:normal;font-weight:bold;font-stretch:ultra-condensed;font-size:48px;font-family:'GT America Trial';-inkscape-font-specification:'GT America Trial Bold Ultra-Condensed';fill:#000000;fill-opacity:1"
       id="path1220" /><path
       d="m 964.08703,584.2264 c 6.528,0 10.368,-3.84 10.368,-10.8 v -14.112 c 0,-6.96 -3.84,-10.8 -10.368,-10.8 -6.48,0 -10.32,3.84 -10.32,10.8 v 14.112 c 0,6.96 3.84,10.8 10.32,10.8 z m 0,-5.232 c -2.208,0 -3.456,-1.68 -3.456,-4.752 v -15.744 c 0,-3.072 1.248,-4.752 3.456,-4.752 2.256,0 3.504,1.68 3.504,4.752 v 15.744 c 0,3.072 -1.248,4.752 -3.504,4.752 z"
       style="font-style:normal;font-variant:normal;font-weight:bold;font-stretch:ultra-condensed;font-size:48px;font-family:'GT America Trial';-inkscape-font-specification:'GT America Trial Bold Ultra-Condensed';fill:#000000;fill-opacity:1"
       id="path1222" /><path
       d="m 984.69028,549.3304 h -6.672 v 25.776 c 0,5.616 3.456,9.12 9.744,9.12 6.24,0 9.696,-3.504 9.696,-9.12 v -25.776 h -6.624 v 25.488 c 0,2.448 -1.152,3.792 -3.072,3.792 -2.016,0 -3.072,-1.344 -3.072,-3.792 z"
       style="font-style:normal;font-variant:normal;font-weight:bold;font-stretch:ultra-condensed;font-size:48px;font-family:'GT America Trial';-inkscape-font-specification:'GT America Trial Bold Ultra-Condensed';fill:#000000;fill-opacity:1"
       id="path1224" /><path
       d="m 1011.097,569.5384 3.744,13.872 h 6.96 l -4.8,-15.456 c 2.544,-1.248 4.032,-3.84 4.032,-7.872 v -1.632 c -0.048,-5.712 -2.832,-9.12 -9.936,-9.12 h -9.072 v 34.08 h 6.672 v -13.872 z m -0.432,-4.272 h -1.968 v -11.328 h 1.968 c 2.544,0 3.504,1.2 3.504,4.32 v 2.16 c 0,3.312 -0.912,4.848 -3.504,4.848 z"
       style="font-style:normal;font-variant:normal;font-weight:bold;font-stretch:ultra-condensed;font-size:48px;font-family:'GT America Trial';-inkscape-font-specification:'GT America Trial Bold Ultra-Condensed';fill:#000000;fill-opacity:1"
       id="path1226" /><path
       d="m 1024.7125,583.4104 h 6.672 v -34.08 h -6.672 z"
       style="font-style:normal;font-variant:normal;font-weight:bold;font-stretch:ultra-condensed;font-size:48px;font-family:'GT America Trial';-inkscape-font-specification:'GT America Trial Bold Ultra-Condensed';fill:#000000;fill-opacity:1"
       id="path1228" /></g></g></svg>
