<?xml version="1.0" encoding="UTF-8" standalone="no"?>
<svg
   id="Layer_1"
   viewBox="0 0 135 65.000002"
   version="1.1"
   sodipodi:docname="NudgeFont.svg"
   width="135"
   height="65"
   inkscape:version="1.3 (0e150ed, 2023-07-21)"
   xmlns:inkscape="http://www.inkscape.org/namespaces/inkscape"
   xmlns:sodipodi="http://sodipodi.sourceforge.net/DTD/sodipodi-0.dtd"
   xmlns="http://www.w3.org/2000/svg"
   xmlns:svg="http://www.w3.org/2000/svg">
  <defs
     id="defs5" />
  <sodipodi:namedview
     id="namedview5"
     pagecolor="#ffffff"
     bordercolor="#666666"
     borderopacity="1.0"
     inkscape:showpageshadow="2"
     inkscape:pageopacity="0.0"
     inkscape:pagecheckerboard="0"
     inkscape:deskcolor="#d1d1d1"
     inkscape:zoom="3.6414135"
     inkscape:cx="67.418875"
     inkscape:cy="32.267689"
     inkscape:window-width="736"
     inkscape:window-height="452"
     inkscape:window-x="0"
     inkscape:window-y="25"
     inkscape:window-maximized="0"
     inkscape:current-layer="Layer_1" />
  <path
     d="M 0,1.56 H 6.96 L 19.18,36.14 19.12,1.56 h 6.43 V 51.68 H 18.72 L 6.37,17.16 6.43,51.68 H 0 Z"
     id="path1" />
  <path
     d="M 28.73,44.01 V 13.13 h 6.37 v 29.51 c 0,2.6 1.43,4.1 3.64,4.1 2.73,0 5.07,-1.69 5.27,-4.88 V 13.13 h 6.37 v 38.55 h -6.24 v -3.45 c -1.89,2.41 -4.81,3.9 -7.74,3.9 -4.81,0 -7.67,-2.93 -7.67,-8.13 z"
     id="path2" />
  <path
     d="m 52.97,31.98 c 0,-12.09 4.03,-19.57 11.25,-19.57 3.51,0 6.05,1.56 7.8,4.16 V 0 h 6.43 v 51.68 h -6.3 v -3.9 c -1.75,2.79 -4.29,4.61 -7.87,4.61 -7.22,0 -11.31,-8 -11.31,-20.41 z M 65.84,47 c 4.23,0 6.57,-6.57 6.57,-14.89 0,-8.32 -2.34,-14.3 -6.57,-14.3 -4.23,0 -6.37,6.05 -6.37,14.3 0,8.25 2.21,14.89 6.37,14.89 z"
     id="path3" />
  <path
     d="m 81.31,53.56 h 6.44 c 0.84,3.71 3.51,6.24 7.08,6.24 3.25,0 5.2,-2.02 5.2,-5.79 l 0.07,-6.37 c -1.75,2.8 -4.29,4.42 -7.67,4.42 -7.15,0 -11.63,-7.48 -11.63,-20.15 0,-12.67 4.55,-19.37 11.63,-19.37 3.38,0 5.92,1.69 7.74,4.35 v -3.77 h 6.31 v 40.77 c 0,6.63 -4.49,10.92 -11.9,10.92 -7.41,0 -12.35,-4.88 -13.26,-11.25 z M 93.6,46.73 c 4.29,0 6.63,-6.44 6.63,-14.76 0,-8.32 -2.41,-14.04 -6.63,-14.04 -4.22,0 -6.31,5.98 -6.31,14.17 0,8.19 2.21,14.63 6.31,14.63 z"
     id="path4" />
  <path
     d="m 108.87,32.57 c 0,-12.22 5.2,-20.09 13.33,-20.09 8.13,0 13.26,8.32 12.35,20.74 h -19.24 c 0.13,8.58 2.73,13.78 6.83,13.78 3.19,0 5.27,-3.45 5.85,-9.69 l 6.24,0.07 c -0.58,9.17 -5.27,14.95 -12.03,14.95 -8.32,0 -13.33,-7.41 -13.33,-19.76 z m 19.31,-4.03 c -0.33,-6.83 -2.41,-10.79 -5.98,-10.79 -3.57,0 -5.98,4.16 -6.69,10.73 z"
     id="path5" />
</svg>
