<?xml version="1.0" encoding="UTF-8"?><svg id="Layer_1" xmlns="http://www.w3.org/2000/svg" viewBox="0 0 134.66 64.81"><path d="M0,1.56H6.96l12.22,34.58-.06-34.58h6.43V51.68h-6.83L6.37,17.16l.06,34.52H0V1.56Z"/><path d="M28.73,44.01V13.13h6.37v29.51c0,2.6,1.43,4.1,3.64,4.1,2.73,0,5.07-1.69,5.27-4.88V13.13h6.37V51.68h-6.24v-3.45c-1.89,2.41-4.81,3.9-7.74,3.9-4.81,0-7.67-2.93-7.67-8.13Z"/><path d="M52.97,31.98c0-12.09,4.03-19.57,11.25-19.57,3.51,0,6.05,1.56,7.8,4.16V0h6.43V51.68h-6.3v-3.9c-1.75,2.79-4.29,4.61-7.87,4.61-7.22,0-11.31-8-11.31-20.41Zm12.87,15.02c4.23,0,6.57-6.57,6.57-14.89s-2.34-14.3-6.57-14.3-6.37,6.05-6.37,14.3,2.21,14.89,6.37,14.89Z"/><path d="M81.31,53.56h6.44c.84,3.71,3.51,6.24,7.08,6.24,3.25,0,5.2-2.02,5.2-5.79l.07-6.37c-1.75,2.8-4.29,4.42-7.67,4.42-7.15,0-11.63-7.48-11.63-20.15s4.55-19.37,11.63-19.37c3.38,0,5.92,1.69,7.74,4.35v-3.77h6.31V53.89c0,6.63-4.49,10.92-11.9,10.92s-12.35-4.88-13.26-11.25Zm12.29-6.83c4.29,0,6.63-6.44,6.63-14.76s-2.41-14.04-6.63-14.04-6.31,5.98-6.31,14.17,2.21,14.63,6.31,14.63Z"/><path d="M108.87,32.57c0-12.22,5.2-20.09,13.33-20.09s13.26,8.32,12.35,20.74h-19.24c.13,8.58,2.73,13.78,6.83,13.78,3.19,0,5.27-3.45,5.85-9.69l6.24,.07c-.58,9.17-5.27,14.95-12.03,14.95-8.32,0-13.33-7.41-13.33-19.76Zm19.31-4.03c-.33-6.83-2.41-10.79-5.98-10.79s-5.98,4.16-6.69,10.73l12.67,.06Z"/></svg>