<?xml version="1.0" encoding="UTF-8" standalone="no"?>
<svg
   id="Layer_1"
   viewBox="0 0 471 99.999997"
   version="1.1"
   sodipodi:docname="RoobertFont.svg"
   width="471"
   height="100"
   inkscape:version="1.3 (0e150ed, 2023-07-21)"
   xmlns:inkscape="http://www.inkscape.org/namespaces/inkscape"
   xmlns:sodipodi="http://sodipodi.sourceforge.net/DTD/sodipodi-0.dtd"
   xmlns="http://www.w3.org/2000/svg"
   xmlns:svg="http://www.w3.org/2000/svg">
  <defs
     id="defs7" />
  <sodipodi:namedview
     id="namedview7"
     pagecolor="#ffffff"
     bordercolor="#666666"
     borderopacity="1.0"
     inkscape:showpageshadow="2"
     inkscape:pageopacity="0.0"
     inkscape:pagecheckerboard="0"
     inkscape:deskcolor="#d1d1d1"
     inkscape:zoom="1.8103778"
     inkscape:cx="235.58618"
     inkscape:cy="49.161009"
     inkscape:window-width="1440"
     inkscape:window-height="819"
     inkscape:window-x="0"
     inkscape:window-y="25"
     inkscape:window-maximized="1"
     inkscape:current-layer="Layer_1" />
  <path
     d="M 0,94.19 V 1.47 c 0.25,0 0.48,0 0.71,0 11.46,0 22.92,0 34.39,0 4.34,0 8.6,0.54 12.69,2.06 8.05,2.99 13.45,8.49 15.83,16.79 1.12,3.89 1.36,7.86 0.85,11.89 -0.74,5.9 -3.64,10.57 -8.21,14.23 -1.66,1.33 -3.58,2.34 -5.38,3.5 -0.16,0.1 -0.33,0.19 -0.4,0.23 1.38,1.11 2.85,2.15 4.15,3.36 3.94,3.65 6.37,8.17 7.26,13.43 0.51,2.97 0.69,5.99 0.95,8.99 0.25,2.92 0.42,5.85 0.62,8.77 0.21,3.14 0.42,6.28 0.63,9.47 H 53.18 c -0.11,-1.44 -0.22,-2.85 -0.32,-4.27 -0.3,-4.26 -0.59,-8.51 -0.9,-12.77 -0.17,-2.33 -0.27,-4.68 -0.57,-7 -0.71,-5.44 -3.3,-9.69 -8.26,-12.26 -2.15,-1.12 -4.53,-1.43 -6.94,-1.43 -8.07,0 -16.13,0 -24.2,0 -0.19,0 -0.39,0.02 -0.65,0.03 V 94.18 H 0 Z M 11.37,46.23 c 0.22,0 0.41,0.03 0.6,0.03 7.65,0 15.3,0.04 22.95,-0.03 2,-0.02 4.03,-0.25 5.98,-0.65 3.67,-0.76 6.67,-2.69 8.91,-5.72 1.63,-2.21 2.55,-4.73 2.98,-7.42 0.71,-4.45 0.37,-8.78 -1.76,-12.83 -1.8,-3.43 -4.57,-5.75 -8.26,-6.98 -2.66,-0.88 -5.4,-1.09 -8.16,-1.09 -7.47,-0.01 -14.95,0 -22.42,0 -0.26,0 -0.52,0 -0.81,0 v 34.69 z"
     id="path1" />
  <path
     d="M 242.2,83.43 V 94.2 H 231.64 V 0 h 10.56 v 38.03 c 0,0 0.09,0.02 0.14,0.03 0.11,-0.15 0.22,-0.3 0.32,-0.46 3.13,-4.97 7.71,-8.02 13.17,-9.88 4.34,-1.48 8.8,-1.56 13.3,-1.06 4.2,0.46 8.18,1.64 11.85,3.76 3.87,2.24 7.08,5.19 9.59,8.9 2.96,4.38 4.63,9.24 5.47,14.41 0.73,4.48 0.77,8.99 0.12,13.47 -1.03,7.12 -3.56,13.61 -8.62,18.91 -4.41,4.61 -9.8,7.4 -16.07,8.53 -3.21,0.58 -6.43,0.81 -9.68,0.51 -5.64,-0.51 -10.63,-2.59 -14.94,-6.26 -0.9,-0.76 -1.72,-1.62 -2.48,-2.52 -0.75,-0.88 -1.37,-1.86 -2.16,-2.95 z m -1,-22.75 c 0.04,2.91 0.28,5.63 0.94,8.3 1.04,4.23 3.01,7.95 6.12,11.05 2.4,2.38 5.26,3.97 8.5,4.89 2.74,0.78 5.54,0.97 8.39,0.81 2.9,-0.16 5.68,-0.8 8.27,-2.11 6.18,-3.11 9.63,-8.35 11.28,-14.88 0.97,-3.83 1.1,-7.73 0.71,-11.66 -0.43,-4.45 -1.69,-8.61 -4.24,-12.32 -2.24,-3.25 -5.15,-5.73 -8.82,-7.21 -4.18,-1.69 -8.55,-2.06 -12.97,-1.32 -7.31,1.22 -12.46,5.33 -15.59,12.01 -1.88,4 -2.51,8.25 -2.58,12.46 z"
     id="path2" />
  <path
     d="m 367.54,62.38 h -52.15 c 0.1,0.98 0.15,1.89 0.29,2.78 0.74,4.8 2.46,9.19 5.61,12.96 3.56,4.26 8.04,6.89 13.58,7.6 3.99,0.51 7.91,0.19 11.74,-1.07 5.43,-1.78 9.07,-5.37 10.83,-10.83 0.11,-0.33 0.22,-0.66 0.33,-0.98 h 10.77 c -0.14,0.75 -0.24,1.47 -0.42,2.18 -1.32,5.21 -4.05,9.56 -8.14,13.04 -4.21,3.58 -9.14,5.6 -14.53,6.58 -4.24,0.77 -8.5,0.88 -12.75,0.27 -6.56,-0.94 -12.26,-3.72 -17.1,-8.27 -4.83,-4.54 -7.87,-10.12 -9.54,-16.48 -1.01,-3.85 -1.36,-7.79 -1.16,-11.77 0.21,-4.26 0.91,-8.43 2.48,-12.42 3,-7.59 8.05,-13.31 15.51,-16.78 3.31,-1.54 6.8,-2.36 10.44,-2.65 4.69,-0.38 9.31,-0.08 13.84,1.29 5.3,1.61 9.84,4.41 13.46,8.64 3.64,4.25 5.75,9.19 6.72,14.66 0.62,3.48 0.6,6.97 0.35,10.47 -0.01,0.17 -0.03,0.35 -0.06,0.52 0,0.06 -0.04,0.12 -0.08,0.25 z m -51.7,-8.64 h 41.09 c 0,-0.23 0.02,-0.43 0,-0.62 -0.31,-2.62 -0.87,-5.17 -2.05,-7.55 -2.04,-4.1 -5.2,-7.01 -9.45,-8.66 -4.26,-1.65 -8.69,-1.9 -13.18,-1.13 -4.24,0.72 -7.87,2.61 -10.79,5.78 -2.51,2.73 -4.1,5.97 -5.03,9.54 -0.22,0.86 -0.39,1.73 -0.59,2.66 z"
     id="path3" />
  <path
     d="m 218.7,60.83 c -0.03,5.32 -0.96,10.47 -3.19,15.31 -2.6,5.65 -6.45,10.27 -11.7,13.69 -4.33,2.82 -9.08,4.52 -14.19,5.15 -7.88,0.97 -15.43,-0.14 -22.42,-4.05 -5.45,-3.05 -9.63,-7.38 -12.56,-12.9 -1.97,-3.71 -3.23,-7.65 -3.74,-11.81 -0.4,-3.24 -0.42,-6.5 -0.1,-9.76 0.44,-4.57 1.75,-8.87 3.9,-12.91 2.51,-4.71 5.98,-8.56 10.43,-11.51 3.56,-2.36 7.42,-4.02 11.61,-4.87 4.13,-0.84 8.29,-0.97 12.48,-0.51 6.23,0.69 11.81,2.96 16.77,6.76 3.51,2.69 6.27,6.03 8.4,9.89 2.07,3.76 3.36,7.78 3.9,12.03 0.23,1.82 0.28,3.66 0.42,5.49 z m -57.2,-0.25 c 0.02,4.69 0.83,8.93 2.8,12.91 2.29,4.64 5.78,8.09 10.5,10.25 4.77,2.18 9.76,2.53 14.83,1.54 5.74,-1.12 10.3,-4.15 13.62,-8.97 2.51,-3.64 3.86,-7.73 4.27,-12.11 0.52,-5.52 -0.11,-10.87 -2.58,-15.91 -2.24,-4.59 -5.65,-8.05 -10.26,-10.22 -4.92,-2.31 -10.11,-2.76 -15.39,-1.59 -6.32,1.39 -11.13,4.92 -14.35,10.56 -2.45,4.29 -3.39,8.96 -3.42,13.57 z"
     id="path4" />
  <path
     d="m 142.4,60.86 c 0,5.3 -0.96,10.41 -3.16,15.24 -1.97,4.33 -4.71,8.12 -8.38,11.22 -4.73,4 -10.15,6.45 -16.26,7.45 -5.82,0.96 -11.56,0.62 -17.21,-1.08 -4.78,-1.43 -8.99,-3.9 -12.64,-7.27 -2.47,-2.29 -4.51,-4.95 -6.14,-7.91 -1.69,-3.09 -2.94,-6.35 -3.6,-9.81 -0.77,-4.06 -0.91,-8.16 -0.5,-12.28 0.44,-4.48 1.71,-8.69 3.79,-12.67 2.52,-4.81 6.03,-8.73 10.57,-11.73 3.54,-2.34 7.38,-4 11.55,-4.85 4.13,-0.85 8.29,-0.98 12.48,-0.52 5.25,0.58 10.08,2.3 14.52,5.15 4.6,2.96 8.16,6.86 10.76,11.65 2.3,4.25 3.62,8.8 4,13.61 0.1,1.26 0.15,2.53 0.22,3.8 z M 85.22,60.8 c 0.03,4.32 0.79,8.48 2.67,12.4 2.58,5.39 6.65,9.23 12.28,11.19 6.06,2.11 12.14,1.95 18.04,-0.7 4.71,-2.12 8.16,-5.61 10.43,-10.23 1.94,-3.94 2.75,-8.13 2.76,-12.5 0,-5.18 -1.05,-10.07 -3.74,-14.55 -2.24,-3.73 -5.34,-6.54 -9.27,-8.37 -4.9,-2.29 -10.07,-2.75 -15.33,-1.6 -6.32,1.38 -11.15,4.88 -14.38,10.52 -2.45,4.29 -3.41,8.95 -3.46,13.84 z"
     id="path5" />
  <path
     d="m 464.38,84.83 v 9.34 c -0.07,0.02 -0.15,0.06 -0.23,0.06 -4.08,-0.03 -8.16,0.06 -12.23,-0.13 -4.46,-0.21 -8.51,-1.68 -11.97,-4.61 -2.38,-2.02 -4.02,-4.55 -5.13,-7.43 -1.15,-2.98 -1.5,-6.09 -1.49,-9.27 0.02,-11.67 0,-23.34 0,-35.02 v -0.92 h -13.99 v -9.44 h 13.97 V 6.11 h 10.63 V 27.4 h 20.44 v 9.42 h -20.43 v 0.85 c 0,11.65 0,23.3 0,34.95 0,2.09 0.14,4.15 0.98,6.11 1.43,3.36 3.95,5.32 7.54,5.9 0.9,0.15 1.83,0.19 2.75,0.19 2.78,0.02 5.57,0 8.35,0 0.26,0 0.52,0 0.81,0 z"
     id="path6" />
  <path
     d="m 381.38,27.44 h 10.53 v 13.08 c 0,0 0.09,0.02 0.13,0.04 0.09,-0.24 0.2,-0.48 0.28,-0.73 0.98,-2.93 2.43,-5.58 4.62,-7.77 2.15,-2.14 4.77,-3.49 7.75,-4.02 1.87,-0.33 3.77,-0.53 5.66,-0.6 2.56,-0.1 5.13,-0.03 7.69,-0.02 0.17,0 0.34,0.03 0.54,0.05 v 9.38 c -0.27,0 -0.52,0 -0.77,0 -3.37,0.03 -6.75,-0.04 -10.12,0.13 -5.43,0.28 -9.52,2.8 -12,7.73 -1.71,3.4 -2.66,7.04 -3.08,10.79 -0.37,3.32 -0.61,6.67 -0.64,10.01 -0.08,9.26 -0.03,18.52 -0.03,27.79 v 0.9 H 381.37 V 27.44 Z"
     id="path7" />
</svg>
