<?xml version="1.0" encoding="UTF-8"?><svg id="Layer_1" xmlns="http://www.w3.org/2000/svg" viewBox="0 0 115.63 135.02"><path d="M3.1,135.02l-2.95-5.12,5.27-5.12c-.15-4.8-.31-12.87-.31-26.66s0-17.36-.46-19.84l-4.19,3.26V36.89c0-2.01-.15-3.41-.46-4.03l9.46-8.99c1.55,2.64,4.34,6.2,5.89,8.68-.62,1.71-1.55,7.75-1.86,10.85-1.4-2.17-2.48-3.88-3.72-5.43v35.81l4.65-3.41c0,5.27,.15,16.9,0,24.03-.47,19.07-1.24,30.69-.78,31.62l-.15,.16-10.39,8.84Z"/><path d="M11.78,5.89c1.71,1.71,2.95,3.88,3.72,6.98L30.69,2.48l.31,.31-2.64,1.86c-2.64,1.86-3.1,2.33-3.1,14.42v9.61l6.98-5.58c.62,.46,1.86,2.33,2.48,4.03,.77,2.17,1.4,5.27,1.4,8.68,0,16.9-2.17,30.38-1.71,31.31-1.24,1.55-3.1,3.57-4.96,5.58l7.44,1.86c-.47,0-.78,.31-.78,1.71v42.94c0,3.72,.78,5.74,2.02,6.67l-7.6,6.04c-1.24-1.24-2.17-3.1-2.79-5.42l-6.67,5.74c-2.64-2.17-5.12-6.51-5.12-12.4V26.66c0-13.49-1.55-17.52-4.5-20.46l.31-.31Zm13.49,26.82v43.56c1.4-1.71,1.55-9.15,1.55-33.17,0-6.51-.62-9.3-1.55-10.39Zm2.33,93.16c-.46-2.17-.77-4.5-.77-7.13v-37.82c0-1.86-.15-2.33-1.55-2.48v41.08c0,3.1,1.09,5.27,2.33,6.36Z"/><path d="M46.66,23.1c6.98,6.98,8.22,12.87,9.3,12.87l-8.99,13.49v57.35c0,11.63,2.95,16.59,7.75,17.67l-8.06,7.13c-5.89-2.95-8.99-8.37-8.99-24.49V36.12c0-2.01-.15-3.41-.46-4.03l9.46-8.99Zm.31,13.8v11.78c1.09-1.71,1.55-3.1,1.55-4.5,0-2.64-.62-5.12-1.55-7.29Z"/><path d="M51.77,2.17c2.17,2.17,4.03,5.27,4.81,10.54,.78-2.48,5.74-8.06,13.64-12.71l.31,.31-.46,.31c-3.26,2.17-4.5,3.72-4.5,21.39V118.12c0,3.41-.31,4.34,1.24,5.89l-6.82,7.44c-2.64-2.17-3.72-4.34-3.72-11.94V17.98c0-8.21-2.02-12.71-4.81-15.5l.31-.31Z"/><path d="M57.35,22.17l9.77-5.42v-1.24c0-2.02,0-4.03-.31-4.34L78.43,1.71l.31,.47-1.71,1.39c-.62,.62-.62,1.08-.62,2.64V15.19c3.26-.31,6.36-.77,10.54-1.55v.31c-.93,.16-1.55,.31-5.58,7.6-1.24,0-3.1-.15-4.96-.15V119.98c0,3.1,.62,5.12,1.55,5.74l-5.89,7.13c-2.33-1.24-4.96-4.34-4.96-7.44V21.24c-6.2,0-7.13,.16-9.61,1.24l-.15-.31Z"/><path d="M86.96,23.1c6.98,6.98,8.22,12.87,9.3,12.87l-8.99,13.49v57.35c0,11.63,2.95,16.59,7.75,17.67l-8.06,7.13c-5.89-2.95-8.99-8.37-8.99-24.49V36.12c0-2.01-.15-3.41-.46-4.03l9.46-8.99Zm.31,13.8v11.78c1.09-1.71,1.55-3.1,1.55-4.5,0-2.64-.62-5.12-1.55-7.29Z"/><path d="M95.33,30.38l7.75-6.2,3.25,3.41c-.31,0-.31,.16-.46,.78l6.36-5.12c0,.62,2.79,2.79,3.41,3.41-2.33,2.63-5.43,7.75-6.67,12.09-.93-2.17-2.33-4.34-3.1-4.96V119.98c0,2.95,1.71,4.65,2.95,5.58l-7.91,6.67c-2.01-1.08-4.34-4.03-4.34-5.74V33.79c0-3.1-.31-3.25-1.24-2.63v-.78Z"/></svg>