<?xml version="1.0" encoding="UTF-8" standalone="no"?>
<svg
   id="Layer_1"
   viewBox="0 0 116 136"
   version="1.1"
   sodipodi:docname="SkelterFont.svg"
   width="116"
   height="136"
   inkscape:version="1.3 (0e150ed, 2023-07-21)"
   xmlns:inkscape="http://www.inkscape.org/namespaces/inkscape"
   xmlns:sodipodi="http://sodipodi.sourceforge.net/DTD/sodipodi-0.dtd"
   xmlns="http://www.w3.org/2000/svg"
   xmlns:svg="http://www.w3.org/2000/svg">
  <defs
     id="defs7" />
  <sodipodi:namedview
     id="namedview7"
     pagecolor="#ffffff"
     bordercolor="#666666"
     borderopacity="1.0"
     inkscape:showpageshadow="2"
     inkscape:pageopacity="0.0"
     inkscape:pagecheckerboard="0"
     inkscape:deskcolor="#d1d1d1"
     inkscape:zoom="1.7478891"
     inkscape:cx="58.070044"
     inkscape:cy="67.223943"
     inkscape:window-width="736"
     inkscape:window-height="452"
     inkscape:window-x="0"
     inkscape:window-y="25"
     inkscape:window-maximized="0"
     inkscape:current-layer="Layer_1" />
  <path
     d="M 3.1,135.02 0.15,129.9 5.42,124.78 C 5.27,119.98 5.11,111.91 5.11,98.12 5.11,84.33 5.11,80.76 4.65,78.28 L 0.46,81.54 V 36.89 C 0.46,34.88 0.31,33.48 0,32.86 l 9.46,-8.99 c 1.55,2.64 4.34,6.2 5.89,8.68 -0.62,1.71 -1.55,7.75 -1.86,10.85 -1.4,-2.17 -2.48,-3.88 -3.72,-5.43 v 35.81 l 4.65,-3.41 c 0,5.27 0.15,16.9 0,24.03 -0.47,19.07 -1.24,30.69 -0.78,31.62 l -0.15,0.16 z"
     id="path1" />
  <path
     d="m 11.78,5.89 c 1.71,1.71 2.95,3.88 3.72,6.98 L 30.69,2.48 31,2.79 28.36,4.65 c -2.64,1.86 -3.1,2.33 -3.1,14.42 v 9.61 l 6.98,-5.58 c 0.62,0.46 1.86,2.33 2.48,4.03 0.77,2.17 1.4,5.27 1.4,8.68 0,16.9 -2.17,30.38 -1.71,31.31 -1.24,1.55 -3.1,3.57 -4.96,5.58 l 7.44,1.86 c -0.47,0 -0.78,0.31 -0.78,1.71 v 42.94 c 0,3.72 0.78,5.74 2.02,6.67 l -7.6,6.04 c -1.24,-1.24 -2.17,-3.1 -2.79,-5.42 l -6.67,5.74 c -2.64,-2.17 -5.12,-6.51 -5.12,-12.4 V 26.66 C 15.95,13.17 14.4,9.14 11.45,6.2 l 0.31,-0.31 z m 13.49,26.82 v 43.56 c 1.4,-1.71 1.55,-9.15 1.55,-33.17 0,-6.51 -0.62,-9.3 -1.55,-10.39 z m 2.33,93.16 c -0.46,-2.17 -0.77,-4.5 -0.77,-7.13 V 80.92 c 0,-1.86 -0.15,-2.33 -1.55,-2.48 v 41.08 c 0,3.1 1.09,5.27 2.33,6.36 z"
     id="path2" />
  <path
     d="m 46.66,23.1 c 6.98,6.98 8.22,12.87 9.3,12.87 l -8.99,13.49 v 57.35 c 0,11.63 2.95,16.59 7.75,17.67 l -8.06,7.13 c -5.89,-2.95 -8.99,-8.37 -8.99,-24.49 v -71 c 0,-2.01 -0.15,-3.41 -0.46,-4.03 l 9.46,-8.99 z m 0.31,13.8 v 11.78 c 1.09,-1.71 1.55,-3.1 1.55,-4.5 0,-2.64 -0.62,-5.12 -1.55,-7.29 z"
     id="path3" />
  <path
     d="M 51.77,2.17 C 53.94,4.34 55.8,7.44 56.58,12.71 57.36,10.23 62.32,4.65 70.22,0 l 0.31,0.31 -0.46,0.31 c -3.26,2.17 -4.5,3.72 -4.5,21.39 v 96.11 c 0,3.41 -0.31,4.34 1.24,5.89 l -6.82,7.44 c -2.64,-2.17 -3.72,-4.34 -3.72,-11.94 V 17.98 c 0,-8.21 -2.02,-12.71 -4.81,-15.5 z"
     id="path4" />
  <path
     d="m 57.35,22.17 9.77,-5.42 v -1.24 c 0,-2.02 0,-4.03 -0.31,-4.34 l 11.62,-9.46 0.31,0.47 -1.71,1.39 c -0.62,0.62 -0.62,1.08 -0.62,2.64 v 8.98 c 3.26,-0.31 6.36,-0.77 10.54,-1.55 v 0.31 c -0.93,0.16 -1.55,0.31 -5.58,7.6 -1.24,0 -3.1,-0.15 -4.96,-0.15 v 98.58 c 0,3.1 0.62,5.12 1.55,5.74 l -5.89,7.13 c -2.33,-1.24 -4.96,-4.34 -4.96,-7.44 V 21.24 c -6.2,0 -7.13,0.16 -9.61,1.24 z"
     id="path5" />
  <path
     d="m 86.96,23.1 c 6.98,6.98 8.22,12.87 9.3,12.87 l -8.99,13.49 v 57.35 c 0,11.63 2.95,16.59 7.75,17.67 l -8.06,7.13 c -5.89,-2.95 -8.99,-8.37 -8.99,-24.49 v -71 c 0,-2.01 -0.15,-3.41 -0.46,-4.03 l 9.46,-8.99 z m 0.31,13.8 v 11.78 c 1.09,-1.71 1.55,-3.1 1.55,-4.5 0,-2.64 -0.62,-5.12 -1.55,-7.29 z"
     id="path6" />
  <path
     d="m 95.33,30.38 7.75,-6.2 3.25,3.41 c -0.31,0 -0.31,0.16 -0.46,0.78 l 6.36,-5.12 c 0,0.62 2.79,2.79 3.41,3.41 -2.33,2.63 -5.43,7.75 -6.67,12.09 -0.93,-2.17 -2.33,-4.34 -3.1,-4.96 v 86.19 c 0,2.95 1.71,4.65 2.95,5.58 l -7.91,6.67 c -2.01,-1.08 -4.34,-4.03 -4.34,-5.74 v -92.7 c 0,-3.1 -0.31,-3.25 -1.24,-2.63 z"
     id="path7" />
</svg>
